<?xml version="1.0" standalone="no"?>
<!DOCTYPE svg PUBLIC "-//W3C//DTD SVG 20010904//EN"
 "http://www.w3.org/TR/2001/REC-SVG-20010904/DTD/svg10.dtd">
<svg version="1.0" xmlns="http://www.w3.org/2000/svg"
 width="5875.000000pt" height="3745.000000pt" viewBox="0 0 5875.000000 3745.000000"
 preserveAspectRatio="xMidYMid meet">

<g transform="translate(0.000000,3745.000000) scale(0.100000,-0.100000)"
fill="#000000" stroke="none">
<path d="M41680 36664 c-1144 -39 -2319 -359 -3500 -955 -638 -321 -1318 -749
-1798 -1131 l-112 -90 -94 41 c-276 121 -525 179 -871 201 -190 13 -261 28
-353 74 -167 84 -250 229 -239 416 9 151 80 280 198 359 157 105 336 112 581
22 60 -22 138 -28 138 -11 0 31 -96 166 -175 246 -207 210 -502 307 -838 274
-306 -29 -571 -140 -800 -335 -218 -184 -386 -524 -428 -865 -16 -129 -6 -367
21 -495 123 -588 550 -1088 1085 -1271 44 -15 83 -30 88 -34 4 -3 -46 -47
-110 -97 -863 -670 -1404 -1741 -1552 -3073 -56 -505 -55 -986 4 -1515 24
-207 75 -541 94 -612 5 -18 6 -33 2 -33 -3 0 -51 11 -106 26 -441 112 -935
123 -1325 28 -687 -168 -1182 -698 -1369 -1465 -117 -480 -100 -1023 44 -1399
143 -373 416 -665 790 -841 295 -139 602 -206 995 -216 300 -8 549 13 815 69
167 35 149 37 174 -24 192 -454 595 -1022 1046 -1474 567 -568 1221 -991 2030
-1314 862 -344 1821 -538 3075 -622 260 -18 1246 -17 1508 1 112 7 205 11 207
9 3 -3 -91 -96 -208 -207 -558 -529 -1286 -1346 -2232 -2506 -802 -983 -1106
-1342 -1525 -1795 -69 -74 -191 -207 -272 -296 -138 -151 -269 -274 -352 -330
l-36 -25 -23 38 c-151 256 -267 421 -386 545 -157 164 -304 258 -406 258 -101
0 -134 -56 -135 -225 0 -164 38 -352 128 -632 22 -68 36 -123 32 -123 -4 0
-76 22 -161 49 -452 144 -690 194 -929 194 -140 1 -250 -19 -338 -60 -119 -56
-89 -134 97 -258 119 -79 249 -141 396 -188 134 -43 476 -124 563 -133 l64 -7
-119 -61 c-458 -238 -941 -592 -1038 -759 -35 -62 -37 -118 -4 -153 32 -35
137 -65 250 -71 218 -13 482 65 882 260 70 34 127 61 127 59 0 -2 -37 -49 -83
-105 -246 -302 -422 -578 -478 -752 -65 -201 5 -311 196 -309 97 0 163 23 270
96 135 90 316 277 475 490 36 48 66 86 66 85 1 -1 -4 -51 -12 -112 -18 -148
-18 -430 1 -518 18 -85 52 -162 94 -209 40 -46 142 -98 190 -98 84 1 158 63
219 185 62 125 96 270 142 622 44 333 85 467 187 611 44 62 88 99 273 228 47
32 133 106 191 164 58 58 179 175 269 260 276 262 497 522 975 1148 131 173
301 391 378 485 76 95 353 440 615 767 262 327 546 678 631 780 146 175 410
480 416 480 2 0 -41 -87 -95 -192 -464 -912 -736 -1879 -826 -2938 -22 -253
-25 -866 -6 -1105 65 -823 235 -1487 538 -2113 174 -359 356 -641 595 -917
106 -123 273 -285 356 -345 l62 -45 1 -165 c1 -691 -221 -1388 -624 -1964
-224 -319 -526 -622 -850 -853 -433 -309 -992 -541 -1496 -620 -173 -27 -513
-25 -675 4 -683 123 -1141 589 -1282 1303 -25 125 -27 155 -27 400 -1 235 2
278 22 385 73 388 233 745 414 926 110 109 248 189 403 230 108 29 307 32 415
6 298 -72 505 -250 597 -513 24 -72 27 -92 27 -224 0 -165 -14 -239 -70 -356
-52 -110 -124 -164 -221 -164 -63 0 -141 23 -318 95 -213 87 -286 107 -381
107 -247 -1 -428 -251 -355 -491 18 -59 32 -82 83 -136 148 -159 370 -284 586
-331 104 -23 310 -23 414 0 206 45 374 139 533 300 243 244 355 541 355 936
-1 449 -177 924 -466 1255 -235 268 -529 418 -924 471 -541 72 -1132 -130
-1580 -541 -342 -313 -552 -756 -626 -1322 -21 -161 -24 -565 -6 -743 50 -474
190 -963 379 -1320 302 -571 823 -1005 1482 -1234 568 -198 1259 -239 1941
-115 951 172 1795 655 2333 1334 498 628 767 1503 767 2498 0 119 3 217 6 217
3 0 33 -20 67 -44 106 -74 266 -166 424 -244 147 -71 153 -76 162 -111 5 -20
57 -241 116 -491 223 -949 302 -1259 380 -1495 91 -274 127 -415 128 -510 1
-64 -2 -77 -41 -152 -89 -175 -123 -346 -103 -518 14 -120 39 -186 101 -267
75 -100 239 -220 355 -259 111 -39 159 -147 210 -482 14 -89 56 -290 95 -447
154 -636 194 -882 193 -1195 0 -249 -41 -431 -127 -574 -45 -74 -144 -167
-219 -206 -34 -18 -56 -36 -55 -44 2 -8 25 -26 53 -39 41 -21 63 -25 123 -23
49 1 71 -2 67 -9 -18 -30 -213 -156 -358 -233 -302 -160 -659 -286 -1352 -476
-181 -49 -400 -111 -485 -136 -85 -25 -223 -64 -306 -87 l-150 -41 -91 55
c-110 67 -216 103 -348 118 -231 28 -426 -55 -513 -217 -17 -32 -36 -79 -42
-105 l-12 -46 -51 24 c-131 59 -291 75 -378 36 -46 -20 -88 -61 -115 -114 -18
-35 -25 -35 -169 6 -149 43 -251 31 -333 -39 l-40 -35 -73 34 c-94 43 -197 66
-294 66 -70 0 -78 -2 -101 -27 l-25 -27 -90 19 c-172 35 -324 2 -382 -83 -44
-63 -59 -119 -59 -222 -1 -113 19 -197 68 -291 105 -200 282 -254 450 -138
l46 31 77 -36 c134 -63 307 -81 455 -47 31 8 44 6 70 -10 82 -51 246 -77 374
-60 96 12 174 1 337 -49 209 -64 300 -68 426 -21 l56 21 57 -34 c194 -117 468
-123 745 -16 133 52 291 167 291 213 0 15 5 18 23 14 142 -35 496 -61 712 -53
509 20 824 70 1505 243 505 127 607 151 870 198 557 100 773 201 875 409 42
86 55 149 55 271 0 224 -99 506 -262 746 l-65 96 128 6 c139 7 179 18 158 43
-20 24 -85 54 -133 60 -55 8 -86 34 -130 108 -162 273 -300 1156 -422 2706
-15 200 -36 405 -50 500 -210 1440 -340 2116 -536 2790 -28 96 -53 184 -55
195 -4 20 1 20 434 22 241 0 519 6 618 13 961 60 1800 274 2510 639 651 335
1162 777 1545 1337 56 82 86 118 98 116 36 -8 307 -129 476 -214 635 -317
1371 -797 2026 -1322 166 -132 833 -692 985 -825 420 -368 702 -726 805 -1021
32 -92 47 -103 138 -98 l73 3 44 -102 c117 -271 242 -471 384 -614 53 -52 123
-113 156 -134 361 -235 710 -126 1084 340 248 308 431 606 671 1090 139 280
208 433 475 1050 292 674 455 1007 651 1331 243 400 291 531 282 763 l-6 128
82 22 c171 46 309 139 363 245 49 96 39 266 -22 371 -33 56 -91 109 -155 141
-46 23 -71 29 -151 32 -67 3 -112 0 -147 -11 -51 -14 -51 -14 -121 19 -189 90
-365 93 -503 8 l-57 -35 -47 36 c-61 46 -125 79 -198 100 -79 23 -227 16 -311
-14 -33 -12 -67 -24 -75 -27 -10 -3 -25 11 -43 39 -37 60 -122 138 -182 168
-42 20 -64 24 -145 24 -87 0 -101 -3 -165 -33 -185 -88 -330 -270 -385 -487
-24 -95 -26 -251 -5 -344 39 -166 166 -306 371 -409 149 -75 156 -106 61 -263
-35 -57 -121 -216 -191 -354 -314 -611 -511 -945 -733 -1244 -63 -85 -87 -110
-94 -100 -5 8 -9 22 -9 32 0 11 -10 21 -22 25 -94 24 -1392 779 -1736 1009
-107 71 -173 147 -223 253 -89 189 -111 228 -162 289 -60 75 -162 156 -261
207 -58 31 -81 37 -153 42 -63 4 -83 8 -79 18 8 21 -16 32 -84 39 -60 7 -81
17 -265 125 -1000 588 -1297 752 -1622 896 -78 34 -133 64 -133 72 0 8 37 102
82 210 247 597 358 1092 398 1777 25 435 -4 1086 -65 1448 -240 1434 -1014
2668 -2256 3599 -306 229 -642 441 -983 619 -150 78 -158 69 86 94 485 49 952
42 1823 -30 629 -52 861 -55 1880 -25 906 27 1508 -35 1984 -206 101 -36 142
-41 204 -23 52 14 48 34 -20 100 -104 101 -204 168 -250 170 -13 0 -11 3 7 11
33 13 153 4 213 -18 68 -23 156 -108 199 -191 61 -117 89 -221 159 -583 69
-359 141 -491 302 -551 172 -65 288 2 351 201 38 119 48 224 44 468 -2 122 -1
222 0 222 2 0 58 -43 124 -95 297 -236 560 -394 707 -426 75 -16 174 -8 208
17 38 28 73 99 73 150 0 133 -113 339 -311 570 -144 168 -264 262 -380 299
l-67 21 266 12 c570 26 881 100 969 231 32 47 29 95 -7 158 -97 169 -402 281
-942 347 -106 13 -186 26 -178 29 8 3 103 33 210 67 448 142 749 288 884 430
65 68 86 111 86 176 0 62 -22 105 -81 158 -81 73 -150 91 -339 90 -129 0 -176
-5 -282 -27 -230 -49 -547 -158 -802 -276 -49 -22 -90 -41 -92 -41 -2 0 17 34
42 76 154 260 238 513 219 657 -19 144 -105 232 -267 273 -165 43 -302 -30
-437 -230 -71 -105 -135 -240 -221 -471 -118 -315 -169 -406 -266 -470 -120
-80 -363 -128 -810 -160 -623 -46 -1626 -24 -4299 90 -1232 53 -1523 65 -1895
80 -455 18 -766 34 -835 43 l-50 7 115 69 c463 279 889 587 1265 915 158 138
506 482 659 651 954 1054 1608 2337 1885 3695 100 488 143 900 145 1391 l1
292 300 5 c231 3 337 9 460 26 683 93 1197 280 1577 573 491 380 793 933 885
1624 24 184 24 603 0 774 -105 740 -488 1377 -1072 1782 -223 155 -494 280
-750 348 -212 56 -289 65 -555 65 -212 0 -262 -3 -373 -23 -279 -50 -481 -119
-762 -257 -347 -171 -648 -388 -952 -689 -67 -66 -124 -118 -126 -116 -3 3
-28 61 -57 130 -315 757 -854 1452 -1565 2020 -1064 848 -2532 1399 -3995
1499 -165 11 -558 20 -700 15z m1045 -118 c568 -52 1077 -164 1595 -351 308
-111 484 -187 785 -340 1019 -515 1862 -1274 2380 -2140 127 -212 274 -522
361 -763 19 -51 40 -102 48 -115 19 -30 134 -374 190 -567 42 -146 106 -393
140 -542 24 -104 108 -590 103 -595 -3 -2 -50 21 -105 52 -363 202 -731 305
-1095 305 l-166 0 -6 48 c-178 1319 -909 2399 -2060 3043 -748 418 -1713 588
-2570 454 -1576 -247 -2811 -1459 -3046 -2988 -11 -72 -21 -133 -23 -134 -1
-2 -54 21 -117 50 -1122 528 -2416 584 -3522 155 -268 -104 -647 -311 -851
-465 -184 -139 -434 -391 -607 -613 -554 -712 -871 -1663 -908 -2725 -8 -234
1 -590 19 -769 6 -59 9 -110 6 -113 -5 -6 -48 178 -86 369 -152 768 -173 1595
-59 2348 84 556 263 1118 496 1560 192 363 384 630 652 904 161 164 280 267
446 388 61 44 112 86 115 93 3 8 160 114 350 236 190 122 347 224 350 226 3 3
-4 11 -14 19 -13 9 -45 14 -85 14 -63 0 -72 -4 -201 -73 -183 -99 -298 -172
-426 -268 l-107 -81 -50 6 c-27 4 -84 18 -127 32 -575 181 -960 777 -960 1486
0 232 47 473 121 621 89 176 250 353 433 475 369 247 761 307 1041 159 64 -34
198 -155 228 -206 21 -36 22 -35 -52 -17 -147 38 -335 40 -464 5 -125 -33
-240 -127 -296 -240 -33 -68 -60 -188 -61 -274 -1 -239 145 -436 390 -526 131
-47 262 -68 588 -94 366 -29 495 -58 697 -160 78 -40 142 -66 160 -65 23 0 63
28 175 121 926 773 2085 1386 3272 1735 656 192 1281 298 1988 338 151 8 775
-4 935 -18z m672 -1571 c741 -75 1495 -416 2078 -942 522 -471 917 -1081 1134
-1753 76 -235 145 -550 167 -763 l7 -66 -39 -6 c-280 -44 -563 -146 -751 -271
-92 -61 -223 -184 -223 -209 0 -21 41 -35 103 -35 47 0 103 23 537 221 479
219 486 222 585 235 340 45 682 -20 1040 -196 194 -95 275 -152 388 -270 388
-403 639 -996 733 -1728 21 -163 30 -780 15 -1010 -40 -589 -133 -1101 -302
-1661 -479 -1578 -1526 -3060 -2884 -4081 -343 -258 -783 -537 -953 -605 -50
-20 -171 -82 -269 -137 -694 -392 -1694 -725 -2708 -902 -400 -70 -880 -127
-1315 -157 -256 -17 -1131 -23 -1417 -10 -1145 54 -2034 220 -2893 541 -923
345 -1732 886 -2371 1586 -598 655 -912 1223 -986 1783 -21 160 -24 536 -5
671 56 399 185 707 401 956 38 45 100 104 137 132 65 49 68 50 203 72 385 63
1531 261 1562 270 51 14 58 38 16 54 -94 39 -793 57 -1007 27 -261 -36 -474
-96 -648 -181 -53 -27 -98 -47 -99 -46 -7 6 -47 178 -78 331 -134 669 -160
1378 -74 2030 128 977 532 1840 1147 2453 148 147 257 239 397 334 683 465
1540 703 2372 658 627 -34 1185 -176 1720 -439 150 -74 166 -80 234 -83 l73
-3 8 55 c67 460 146 740 313 1104 96 210 289 519 452 721 310 386 738 732
1180 954 461 230 884 340 1488 385 88 7 380 -4 532 -19z m7088 -995 c617 -69
1182 -421 1524 -950 400 -617 524 -1484 329 -2289 -92 -380 -243 -660 -503
-930 -426 -442 -1080 -730 -1860 -817 -194 -21 -602 -25 -614 -6 -4 7 -11 59
-14 115 -10 151 -44 401 -78 565 -16 79 -27 147 -24 151 13 12 284 4 425 -13
261 -32 378 -26 621 35 578 143 957 433 1196 914 281 563 251 1170 -81 1655
-79 116 -272 304 -396 386 -191 126 -369 200 -568 234 -710 120 -1322 -76
-1805 -580 -108 -112 -208 -237 -270 -338 l-44 -72 -22 78 c-12 42 -66 210
-119 372 -53 162 -99 305 -103 317 -6 18 12 42 112 146 200 210 425 400 656
554 539 360 1127 530 1638 473z m4 -1040 c720 -134 1133 -878 960 -1732 -91
-454 -357 -820 -784 -1078 -225 -136 -436 -205 -749 -245 -189 -24 -345 -23
-506 3 -74 12 -151 23 -170 24 -29 3 -36 8 -47 38 -178 498 -295 697 -564 954
l-122 117 -23 102 c-29 130 -70 398 -84 547 l-11 115 42 82 c47 93 153 259
223 347 322 411 761 670 1256 742 138 20 431 12 579 -16z m-18069 -5140 c149
-11 384 -48 530 -84 l94 -23 14 -64 c51 -243 146 -567 236 -803 l43 -115 -77
72 c-197 185 -434 310 -695 368 -133 30 -363 36 -496 15 -457 -76 -834 -402
-973 -844 -149 -472 6 -1010 374 -1305 195 -156 468 -256 785 -288 106 -10
560 -9 604 2 11 3 22 -38 47 -186 49 -285 61 -402 43 -419 -25 -24 -333 -85
-565 -112 -201 -23 -545 -23 -713 0 -775 106 -1218 526 -1363 1291 -19 104
-22 153 -22 360 0 206 3 258 22 368 90 504 313 943 642 1266 391 383 867 546
1470 501z m95 -711 c342 -57 683 -327 856 -681 l33 -67 -60 -64 c-139 -148
-269 -350 -309 -481 -14 -45 -50 -202 -79 -351 -74 -366 -113 -485 -187 -570
-60 -68 -69 -70 -314 -69 -186 0 -235 4 -315 21 -438 98 -738 345 -859 708
-208 624 143 1327 762 1524 153 49 302 58 472 30z m2430 -428 l70 -6 -225 -38
c-124 -21 -394 -67 -600 -103 -206 -35 -379 -64 -385 -64 -18 1 77 48 170 84
259 102 664 155 970 127z m19105 -3827 c62 -18 124 -73 136 -120 11 -43 -11
-170 -47 -276 -63 -185 -162 -370 -303 -563 -36 -49 -66 -95 -66 -101 0 -15
46 -34 100 -41 43 -5 54 -1 153 57 347 199 913 362 1267 364 128 1 182 -12
206 -49 61 -93 -170 -314 -451 -433 -187 -79 -326 -123 -658 -206 -120 -30
-221 -56 -223 -59 -8 -8 8 -38 28 -48 10 -6 121 -21 246 -35 706 -76 1039
-191 1059 -367 5 -38 1 -48 -26 -80 -41 -46 -95 -71 -214 -102 -164 -41 -334
-56 -702 -62 -187 -3 -348 -9 -357 -15 -34 -17 -18 -37 58 -72 165 -77 304
-177 439 -317 144 -149 233 -299 275 -463 25 -98 26 -126 3 -126 -35 0 -560
305 -834 486 -100 66 -139 85 -188 95 -93 20 -93 19 -74 -171 25 -261 6 -611
-41 -749 -43 -125 -138 36 -301 510 -43 123 -95 260 -117 304 -91 182 -186
294 -299 350 -108 55 -165 66 -369 75 -231 9 -269 22 -218 70 57 53 160 84
445 135 150 26 193 40 193 61 0 28 -57 48 -252 90 -110 24 -203 46 -206 49 -3
3 37 5 89 5 216 0 439 56 547 137 42 31 33 49 -48 92 -93 50 -210 70 -465 81
-121 5 -236 9 -254 10 -19 0 -31 4 -25 8 5 5 117 59 249 121 132 62 247 120
255 128 13 13 12 17 -9 34 -36 30 -17 39 95 45 110 6 184 24 255 59 99 51 143
139 244 489 25 88 59 193 75 235 35 91 115 233 179 318 52 70 62 73 151 47z
m-8560 -1059 c85 -3 369 -14 630 -25 261 -11 590 -25 730 -30 140 -6 455 -19
700 -30 2272 -100 3170 -130 3945 -130 595 0 1017 19 1254 56 52 8 96 12 98
10 7 -7 -63 -40 -126 -61 -30 -10 -143 -60 -250 -111 -145 -70 -197 -99 -199
-113 -6 -38 20 -42 526 -101 261 -31 312 -40 312 -59 0 -22 -220 -55 -448 -67
-131 -7 -165 -19 -146 -50 18 -30 124 -83 249 -123 89 -29 114 -40 95 -44 -14
-3 -92 -17 -173 -31 -214 -38 -324 -93 -347 -174 -8 -31 -7 -41 8 -62 25 -33
90 -70 125 -70 20 0 30 -6 34 -20 4 -13 19 -23 47 -31 72 -18 80 -21 128 -45
74 -38 64 -43 -36 -18 -185 44 -421 77 -686 95 -171 11 -520 10 -1540 -7 -447
-8 -631 0 -1365 56 -280 22 -598 44 -705 51 -255 15 -814 16 -1010 0 -157 -12
-452 -50 -547 -71 -49 -11 -105 -42 -93 -53 3 -2 102 -52 220 -110 1393 -686
2425 -1798 2945 -3172 29 -77 67 -185 85 -240 39 -123 131 -457 126 -462 -1
-2 -27 36 -56 84 -652 1075 -1596 1953 -2597 2417 -501 232 -945 355 -1513
417 -146 16 -621 16 -760 0 -169 -19 -333 -43 -357 -52 -31 -12 -29 -28 16
-123 108 -229 150 -477 121 -714 -7 -56 -13 -102 -14 -102 0 0 -40 38 -87 84
-226 220 -488 326 -802 326 -97 0 -100 -6 -76 -134 44 -225 46 -494 4 -699
-21 -100 -77 -279 -85 -270 -4 5 -17 37 -30 73 -51 145 -175 366 -289 515 -59
78 -249 273 -281 290 -14 7 -51 16 -82 19 -55 7 -59 6 -84 -21 -41 -44 -128
-198 -178 -316 -58 -136 -109 -304 -144 -479 -16 -76 -31 -140 -34 -143 -3 -3
-10 32 -16 77 -25 177 -33 333 -31 591 2 221 -1 271 -12 278 -8 5 -44 9 -81 9
-62 0 -73 -4 -145 -46 -426 -252 -781 -606 -1128 -1124 -500 -748 -825 -1619
-1005 -2695 -81 -486 -91 -956 -30 -1415 144 -1074 710 -2208 1522 -3045 77
-80 137 -145 133 -145 -3 0 -57 39 -118 86 l-112 86 -110 -7 c-154 -9 -157
-11 -171 -115 -10 -74 -44 -180 -58 -180 -2 0 -4 111 -3 248 2 254 -4 302 -41
345 -17 19 -93 24 -137 7 -23 -9 -30 -7 -45 12 -11 13 -26 46 -34 73 -9 28
-23 61 -32 73 -9 13 -81 75 -159 137 -339 270 -651 704 -888 1235 -274 616
-473 1448 -518 2175 -13 213 -7 767 10 960 116 1262 521 2462 1187 3516 41 64
74 121 74 127 0 25 -101 31 -153 8 -18 -7 -95 -78 -172 -157 -371 -381 -613
-664 -1285 -1504 -299 -372 -667 -820 -1306 -1586 -177 -213 -400 -483 -495
-600 -94 -118 -204 -249 -242 -292 l-71 -79 -17 34 c-25 49 -55 62 -136 56
-97 -8 -162 -36 -318 -139 -76 -49 -140 -88 -142 -85 -5 5 29 44 212 237 97
103 160 187 180 241 10 26 -48 52 -100 44 -23 -3 -122 -44 -219 -92 -96 -48
-178 -85 -181 -82 -3 3 50 45 119 92 69 48 146 106 172 129 65 57 124 134 117
153 -10 27 -79 54 -135 54 -55 0 -163 -25 -233 -53 -38 -16 -39 -16 -15 1 143
99 428 352 630 558 250 255 412 441 896 1029 1441 1749 1663 2013 2123 2524
304 338 827 873 1031 1054 l85 76 110 0 c316 0 984 101 1470 222 701 175 1343
421 2160 825 143 71 271 134 285 141 15 6 54 10 95 7 39 -2 140 -6 225 -9z
m475 -2445 c540 -64 962 -177 1400 -376 1073 -486 1975 -1388 2656 -2654 144
-269 157 -302 168 -420 62 -668 21 -1385 -115 -1994 -63 -283 -128 -490 -277
-881 -36 -93 -96 -253 -135 -355 -212 -561 -372 -938 -418 -991 -10 -12 -28
-15 -67 -12 -28 2 -56 0 -62 -4 -5 -4 -46 -62 -89 -128 -354 -536 -816 -959
-1410 -1290 -765 -427 -1768 -676 -2859 -712 -331 -11 -1175 25 -1362 57 -560
97 -962 326 -1400 800 -869 939 -1364 1989 -1492 3167 -22 200 -25 790 -5 993
83 853 406 1868 830 2610 316 552 651 947 1063 1255 l114 84 7 -212 c7 -236
34 -491 73 -708 33 -179 91 -434 106 -461 14 -27 69 -48 123 -48 52 0 52 -1
61 115 31 397 101 772 185 1005 33 90 128 292 152 324 13 17 18 14 77 -50 198
-215 365 -530 440 -826 24 -97 32 -115 55 -129 42 -25 104 -32 131 -15 33 22
117 192 163 331 72 217 95 338 100 530 5 220 -4 268 -62 339 -79 98 -75 121
23 111 278 -30 498 -177 686 -460 52 -79 73 -96 139 -116 56 -16 74 -3 96 70
57 189 75 433 46 648 -20 153 -41 210 -111 297 -31 38 -54 74 -52 80 12 38
203 56 562 51 205 -2 328 -9 460 -25z m-10353 -3298 c98 -86 282 -298 365
-422 69 -102 169 -276 166 -287 -3 -7 10 -19 28 -28 26 -14 55 -16 157 -13 99
2 126 0 130 -11 7 -21 -111 -125 -187 -165 -80 -42 -159 -99 -184 -132 -10
-14 -21 -40 -24 -59 -5 -31 -2 -36 21 -45 65 -24 253 -5 379 39 31 11 57 17
57 13 0 -4 -65 -75 -144 -159 -186 -195 -186 -206 4 -206 108 1 181 20 323 85
66 30 94 38 117 33 16 -4 32 -10 34 -14 3 -4 -19 -44 -49 -88 -46 -69 -73 -96
-182 -180 -70 -54 -168 -125 -216 -157 -48 -32 -94 -67 -101 -79 -7 -12 -21
-83 -31 -157 -43 -343 -124 -745 -191 -950 -85 -259 -127 -285 -154 -93 -17
126 -23 401 -11 548 11 137 44 418 57 482 5 26 2 34 -20 48 -14 9 -51 19 -83
22 l-59 5 -64 -83 c-195 -255 -310 -386 -453 -521 -245 -229 -384 -348 -408
-348 -17 0 -9 107 12 176 68 220 234 453 635 891 79 87 144 161 144 165 0 18
-54 40 -107 45 -55 4 -68 0 -258 -80 -577 -243 -991 -384 -1101 -375 -34 3
-39 6 -42 31 -5 42 47 144 107 209 145 158 411 319 974 587 92 44 167 85 167
90 0 18 -62 50 -110 57 -157 22 -435 83 -620 136 -95 27 -111 35 -180 93 -95
80 -195 184 -204 213 -12 35 9 52 65 52 155 0 607 -88 1026 -200 225 -61 299
-72 309 -46 3 7 -7 40 -21 72 -62 137 -138 345 -167 453 -24 92 -31 145 -35
253 -7 156 -1 173 47 157 16 -6 53 -32 82 -57z m20254 -3184 c83 -41 84 -44
169 -388 48 -196 83 -320 93 -327 35 -28 155 -1 167 38 4 11 7 70 7 133 0 125
-23 243 -66 341 -15 31 -26 59 -26 60 0 1 26 14 59 29 84 37 167 36 247 -4 33
-16 73 -43 89 -60 l28 -30 18 -257 c14 -199 21 -260 33 -272 10 -9 40 -17 79
-19 60 -4 65 -2 86 24 63 80 87 294 44 400 l-20 51 32 43 c46 61 98 90 162 90
48 0 157 -32 167 -48 2 -4 -2 -113 -8 -242 -11 -235 -11 -235 10 -257 23 -23
74 -37 119 -31 36 4 85 65 116 145 30 79 30 196 0 273 -11 30 -21 58 -21 62 0
11 61 28 100 28 40 0 95 -31 135 -78 61 -70 102 -205 91 -301 -19 -158 -121
-247 -311 -272 -99 -12 -155 -31 -155 -51 1 -7 7 -40 15 -73 18 -75 19 -212 2
-285 -22 -92 -64 -189 -133 -310 -349 -607 -485 -877 -979 -1950 -249 -539
-560 -1182 -660 -1360 -141 -253 -284 -450 -417 -575 -141 -133 -254 -187
-388 -187 -213 0 -406 158 -584 477 -115 208 -406 929 -383 952 4 3 26 -8 50
-25 23 -18 82 -59 131 -92 87 -58 91 -60 156 -60 40 0 74 5 85 14 18 13 18 15
1 67 -10 30 -54 123 -97 208 -43 85 -79 158 -79 163 0 15 78 8 174 -17 120
-31 198 -33 226 -5 11 11 20 28 20 38 -1 29 -37 100 -95 182 -30 43 -55 82
-55 87 0 4 35 6 77 5 43 -2 111 -1 152 3 63 6 79 11 103 35 34 34 36 69 9 139
-22 58 -108 176 -197 267 -35 37 -64 68 -64 71 0 6 93 63 103 63 4 0 5 -5 2
-10 -8 -13 23 -160 37 -177 15 -18 87 -15 130 5 42 20 145 137 288 327 176
236 358 525 540 860 143 264 482 954 477 969 -3 8 -30 22 -59 31 -66 22 -177
76 -232 114 -56 39 -146 136 -179 192 -71 122 -111 322 -89 451 33 191 195
348 361 348 45 0 76 -6 107 -22z m-5741 -272 c301 -146 524 -271 1075 -599
129 -77 298 -173 375 -213 107 -56 135 -74 120 -79 -161 -53 -284 -126 -385
-229 -77 -79 -74 -90 28 -84 63 3 90 13 316 118 l248 114 82 -44 c152 -81 279
-170 361 -254 96 -98 138 -172 124 -220 -6 -17 -20 -69 -33 -116 -13 -47 -51
-184 -85 -304 -34 -121 -61 -229 -59 -240 4 -29 63 -56 120 -56 l46 0 47 73
c66 102 123 226 147 321 12 45 23 83 24 84 1 2 39 -28 84 -67 160 -138 359
-259 805 -486 149 -76 396 -208 549 -293 l279 -156 -60 -12 c-33 -7 -78 -21
-99 -32 -40 -21 -84 -58 -84 -70 1 -13 29 -45 128 -147 144 -149 174 -227 98
-264 -16 -7 -79 -16 -140 -20 -61 -4 -121 -13 -133 -19 -29 -16 -30 -54 -3
-123 28 -74 66 -125 129 -171 48 -35 52 -39 26 -33 -186 44 -217 49 -337 49
-108 1 -130 -2 -145 -16 -16 -17 -16 -20 1 -55 10 -20 39 -69 64 -107 26 -39
51 -77 55 -83 6 -10 -6 -11 -51 -7 -70 8 -190 -16 -240 -46 l-32 -20 0 -87 0
-86 -41 59 c-126 179 -379 449 -614 655 -127 111 -821 689 -990 825 -789 634
-1819 1266 -2510 1539 -38 15 -71 29 -73 30 -2 2 40 61 92 131 176 236 317
539 406 872 22 81 23 83 49 77 14 -4 121 -53 236 -109z m-12957 -1295 c125
-27 211 -55 313 -106 128 -63 204 -118 309 -224 207 -207 351 -494 424 -841
37 -175 49 -319 43 -523 -9 -308 -58 -490 -184 -680 -105 -158 -326 -343 -466
-390 -52 -18 -86 -21 -207 -21 -129 0 -155 3 -235 28 -219 67 -405 199 -477
340 -13 26 -23 68 -26 113 -4 64 -1 79 22 127 35 71 145 176 185 176 42 0 77
-14 286 -112 334 -158 433 -179 561 -119 204 96 349 389 331 669 -6 101 -31
181 -93 303 -126 246 -359 433 -629 506 -92 24 -116 27 -295 27 -176 1 -203
-1 -280 -23 -265 -74 -484 -239 -652 -491 -213 -320 -328 -726 -328 -1160 0
-352 65 -638 210 -926 262 -520 686 -810 1285 -880 253 -30 596 -10 910 52
803 158 1363 442 1871 949 438 437 742 952 919 1560 69 239 135 617 135 779
l0 49 38 -7 c20 -3 45 -6 55 -6 16 0 17 -13 11 -217 -7 -238 2 -325 36 -343
10 -6 45 -10 77 -10 109 0 207 71 261 189 l26 56 8 -30 c60 -222 -47 -906
-247 -1565 -318 -1053 -1060 -1781 -2215 -2173 -289 -99 -706 -192 -1025 -229
-160 -18 -541 -15 -695 6 -355 48 -595 119 -885 261 -417 204 -756 507 -1020
910 -617 942 -655 2337 -88 3195 296 449 735 726 1263 800 104 14 361 4 468
-19z m5504 -1589 c284 -128 643 -210 1073 -245 l140 -12 18 -55 c110 -329 280
-1005 381 -1510 208 -1045 363 -2342 426 -3555 32 -619 137 -967 353 -1168
l52 -49 -75 41 c-124 66 -204 92 -274 89 l-61 -3 -10 -41 -10 -42 -40 33 c-61
52 -123 79 -182 79 -44 1 -56 -3 -83 -29 -41 -39 -67 -128 -76 -257 l-7 -103
-12 50 c-26 112 -102 276 -163 354 -46 57 -87 81 -139 81 -24 0 -43 2 -43 5 0
3 9 24 20 45 41 80 71 235 77 400 9 258 -23 503 -127 966 -34 148 -81 368
-106 489 -45 218 -139 644 -150 677 -5 16 6 17 128 12 150 -6 221 3 226 28 5
28 -35 40 -240 73 l-197 32 -108 90 c-123 102 -307 241 -340 256 -34 15 -48
70 -47 187 0 76 6 128 23 189 27 103 80 244 95 253 6 4 111 80 233 170 133 97
222 169 220 177 -3 23 -60 51 -114 57 -39 5 -63 0 -129 -25 -44 -17 -106 -47
-138 -66 -67 -40 -76 -42 -76 -16 0 11 -27 109 -59 218 -63 211 -178 672 -366
1468 -63 270 -126 534 -139 588 -13 53 -22 97 -21 97 2 0 32 -13 67 -28z
m1335 -6574 c17 -29 65 -120 105 -202 79 -161 130 -229 193 -257 44 -21 106
-24 135 -9 31 17 51 107 59 274 7 118 13 162 25 181 20 31 33 26 113 -47 53
-48 141 -98 173 -98 35 0 60 30 60 71 0 21 4 39 9 39 13 0 95 -93 146 -165
141 -197 208 -400 208 -630 0 -145 -18 -230 -71 -348 -43 -93 -74 -130 -157
-186 -123 -82 -311 -137 -615 -181 -308 -44 -344 -52 -965 -205 -569 -141
-737 -176 -1040 -216 -138 -19 -218 -23 -425 -23 -266 -1 -380 10 -568 54 -46
11 -93 20 -104 20 -12 0 -48 -30 -91 -76 -168 -180 -427 -289 -607 -254 -69
13 -157 57 -181 90 -12 18 -39 149 -89 445 -39 231 -75 429 -79 440 -24 58 62
189 144 221 68 26 221 15 420 -31 112 -25 195 -38 275 -42 114 -5 116 -5 340
52 963 242 1589 458 2115 729 276 142 387 214 417 269 6 12 11 48 10 80 -2 31
1 57 6 57 4 0 22 -24 39 -52z m-4055 -1288 c87 -33 83 -26 63 -123 -14 -66
-17 -111 -12 -199 7 -136 32 -231 91 -345 l43 -83 -148 -2 c-82 -1 -173 -2
-201 -3 l-53 0 -77 315 -77 315 42 43 c93 95 215 125 329 82z m-1564 -95 c3
-3 -8 -20 -26 -38 -93 -96 -104 -247 -29 -411 30 -66 30 -69 12 -82 -10 -8
-36 -14 -56 -14 -100 0 -170 147 -156 327 11 153 90 242 201 229 27 -3 51 -8
54 -11z m985 -15 c-1 -8 -11 -42 -23 -75 -61 -168 -26 -354 98 -517 l51 -68
-87 0 c-75 0 -199 13 -207 22 -5 5 -105 533 -105 550 0 18 77 71 136 92 51 20
140 17 137 -4z m-629 -41 c78 -6 143 -13 145 -15 2 -2 -1 -9 -7 -16 -19 -24
-52 -137 -52 -181 0 -91 43 -195 114 -274 26 -28 42 -54 38 -57 -25 -15 -133
-36 -189 -36 -70 0 -146 24 -196 63 l-32 24 7 129 c3 71 6 184 7 252 1 87 4
122 13 122 6 0 75 -5 152 -11z"/>
<path d="M42525 33709 c-228 -30 -427 -132 -591 -301 -95 -97 -161 -194 -209
-304 -32 -73 -33 -80 -18 -91 20 -15 65 -17 110 -4 20 6 72 50 145 123 181
182 300 249 453 256 84 3 98 1 220 -39 101 -32 146 -42 200 -42 117 -1 205 41
251 118 71 123 -13 217 -236 265 -109 24 -236 31 -325 19z m297 -111 c72 -33
100 -74 96 -138 -2 -36 -8 -47 -29 -59 -24 -13 -32 -13 -90 8 -140 51 -201 63
-319 64 -137 2 -220 -16 -336 -73 -43 -21 -80 -37 -82 -36 -8 9 156 150 215
185 106 63 190 82 353 78 122 -2 141 -5 192 -29z"/>
<path d="M42455 32645 c-327 -46 -650 -158 -890 -308 -271 -169 -481 -402
-624 -692 -105 -213 -161 -396 -198 -650 -26 -178 -23 -541 5 -732 144 -964
638 -1721 1407 -2156 436 -246 983 -374 1450 -338 333 26 613 101 882 236 190
96 310 182 453 325 142 142 229 263 320 445 148 295 220 623 220 995 0 689
-264 1433 -673 1897 -456 518 -1043 857 -1667 964 -163 28 -533 35 -685 14z
m442 -70 c580 -76 1178 -382 1631 -834 144 -143 232 -252 324 -401 225 -363
361 -716 430 -1116 30 -176 33 -582 5 -744 -86 -490 -293 -899 -609 -1205
-243 -236 -517 -372 -863 -426 -102 -17 -415 -17 -520 0 -427 65 -783 207
-1167 463 -316 211 -611 501 -802 791 -286 435 -436 933 -436 1447 0 520 154
1001 444 1387 163 218 343 369 571 483 146 72 184 87 314 120 190 49 460 63
678 35z"/>
<path d="M42835 31838 c-422 -79 -720 -392 -802 -842 -19 -110 -22 -346 -4
-461 114 -743 691 -1396 1388 -1572 100 -26 123 -28 298 -27 178 0 196 2 280
28 387 117 637 405 711 820 20 110 23 348 5 461 -121 774 -737 1447 -1451
1586 -109 21 -332 25 -425 7z m359 -128 c152 -40 292 -126 416 -256 177 -186
272 -406 274 -634 0 -122 -13 -187 -60 -286 -62 -132 -201 -238 -349 -265 -79
-15 -203 -5 -290 22 -148 46 -271 124 -391 251 -401 423 -346 1050 103 1173
75 21 207 18 297 -5z"/>
<path d="M36550 31116 c-213 -45 -445 -168 -518 -276 -75 -110 63 -250 246
-250 78 0 135 30 250 130 160 138 231 166 402 157 116 -6 209 -31 364 -99 80
-35 97 -38 142 -33 29 3 59 12 69 19 15 11 9 19 -53 78 -128 120 -279 206
-448 254 -111 32 -348 42 -454 20z m349 -76 c41 -12 107 -37 148 -57 76 -37
105 -61 62 -50 -76 18 -203 29 -278 24 -175 -12 -337 -80 -458 -192 -105 -96
-137 -105 -169 -43 -23 45 -6 96 51 146 73 64 214 145 295 169 102 30 246 31
349 3z"/>
<path d="M37250 30409 c-878 -100 -1574 -879 -1767 -1978 -38 -217 -44 -556
-14 -766 35 -240 93 -442 191 -665 186 -422 516 -797 907 -1030 502 -299 1146
-365 1642 -168 702 277 1217 1016 1355 1943 35 231 30 440 -15 705 -76 451
-267 887 -532 1215 -147 183 -370 373 -574 490 -353 203 -801 298 -1193 254z
m581 -75 c431 -73 814 -350 1111 -804 86 -131 223 -406 281 -565 78 -212 143
-486 167 -700 46 -417 -61 -956 -276 -1389 -291 -586 -776 -972 -1369 -1091
-515 -103 -979 46 -1368 439 -345 348 -598 864 -701 1428 -39 210 -52 427 -38
621 43 577 283 1117 672 1508 291 292 645 482 1025 548 142 25 366 27 496 5z"/>
<path d="M37635 29465 c-194 -43 -368 -146 -519 -306 -213 -226 -356 -552
-397 -901 -18 -160 -6 -444 25 -594 113 -539 436 -932 857 -1045 116 -32 308
-32 424 0 759 204 1132 1323 726 2177 -169 353 -422 582 -729 660 -109 28
-284 32 -387 9z m466 -175 c151 -28 299 -152 381 -320 54 -109 76 -187 89
-313 18 -172 -26 -386 -108 -527 -53 -91 -162 -197 -244 -237 -311 -152 -655
80 -735 495 -18 95 -18 269 0 365 68 355 337 589 617 537z"/>
<path d="M46042 28182 c-15 -15 -83 -92 -150 -170 -582 -672 -1298 -1286
-2052 -1759 -779 -490 -1602 -877 -2607 -1228 -100 -35 -190 -69 -200 -74 -10
-6 -92 -33 -183 -60 -1319 -395 -2804 -652 -3970 -687 -229 -6 -270 -14 -270
-48 0 -58 197 -610 309 -866 71 -161 177 -324 241 -370 16 -12 68 -72 114
-133 301 -401 686 -750 1105 -1004 226 -137 565 -293 811 -373 242 -79 531
-150 607 -150 22 0 73 -9 114 -19 157 -40 369 -56 754 -56 387 0 491 7 845 56
393 55 831 151 1202 263 935 283 1595 592 2318 1083 193 131 340 260 340 297
0 6 32 43 71 81 39 39 119 125 179 192 603 684 950 1499 1031 2428 64 730 -89
1708 -377 2412 -31 76 -61 144 -67 151 -13 17 -73 47 -110 56 -23 5 -33 1 -55
-22z m91 -234 c9 -24 29 -81 47 -128 121 -332 224 -807 275 -1275 38 -347 41
-317 -43 -427 -311 -406 -702 -807 -1109 -1136 -131 -106 -325 -253 -329 -250
-1 2 -39 118 -83 259 -116 369 -186 568 -248 704 -139 303 -186 434 -204 562
-14 95 -2 174 32 216 10 14 99 85 196 158 212 159 441 348 636 527 182 166
527 518 682 695 66 75 123 137 126 137 4 0 14 -19 22 -42z m-1872 -1665 c138
-321 448 -1210 554 -1588 l17 -59 -26 -21 c-37 -29 -269 -170 -441 -267 -633
-358 -1354 -655 -2130 -877 -300 -85 -448 -122 -457 -113 -5 5 -67 165 -139
358 -142 382 -277 737 -333 881 -61 156 -59 258 7 307 18 13 64 34 102 46 285
92 887 331 1220 483 499 228 1171 600 1535 851 36 25 66 45 68 45 1 1 12 -20
23 -46z m2216 -510 c-47 -980 -412 -1881 -1055 -2601 -45 -51 -68 -69 -73 -60
-4 7 -14 60 -24 118 -52 325 -160 822 -265 1219 -17 63 -29 118 -28 122 2 3
86 69 188 146 450 337 805 667 1148 1071 58 67 107 122 110 122 3 0 2 -62 -1
-137z m-5394 -1005 c133 -369 331 -910 446 -1213 50 -132 87 -242 83 -246 -12
-11 -502 -106 -792 -153 -582 -95 -1227 -165 -1777 -192 -151 -8 -154 -7 -185
66 -150 349 -387 1095 -371 1172 12 61 39 73 226 103 826 131 1512 285 2192
494 72 22 135 40 141 40 6 1 23 -32 37 -71z m3855 -543 c33 -132 74 -303 91
-380 17 -77 51 -230 75 -340 55 -246 70 -357 63 -458 -10 -148 -44 -188 -357
-422 -511 -381 -1044 -653 -1760 -899 -139 -47 -488 -156 -502 -156 -16 0
-193 373 -330 695 -132 309 -388 951 -388 971 0 6 42 21 93 34 616 152 1250
366 1798 605 341 150 788 382 1054 547 50 31 93 54 97 50 4 -4 34 -115 66
-247z m-6640 -71 c91 -354 201 -694 328 -1017 41 -104 74 -191 74 -194 0 -2
-280 -3 -622 -1 -618 3 -623 3 -671 25 -79 36 -107 62 -162 147 -127 197 -266
480 -349 709 -51 141 -96 294 -88 302 3 3 48 5 101 5 209 0 666 36 1071 84
151 18 280 32 285 31 6 -1 20 -42 33 -91z m3504 -1288 c169 -423 334 -811 396
-931 128 -251 126 -246 127 -312 0 -118 -46 -140 -500 -227 -169 -33 -335 -58
-625 -96 -693 -89 -1047 -80 -1286 34 -60 28 -80 45 -126 102 -195 246 -437
613 -605 919 -70 127 -253 491 -253 503 0 4 135 16 301 25 759 45 1565 147
2239 286 102 21 187 39 190 39 3 1 67 -153 142 -342z m-3747 -2 c330 -3 610
-7 623 -10 36 -7 108 -80 157 -158 24 -39 78 -143 120 -231 141 -295 174 -359
259 -492 105 -164 193 -288 329 -466 59 -75 101 -137 94 -137 -23 0 -263 69
-382 110 -718 248 -1322 688 -1793 1308 -34 44 -62 84 -62 88 0 3 12 3 28 0
15 -3 297 -9 627 -12z"/>
<path d="M41485 26800 c-60 -30 -90 -81 -90 -151 0 -70 21 -104 85 -136 114
-59 275 2 295 111 8 38 -14 98 -48 135 -55 59 -167 78 -242 41z m115 -128 c0
-39 -11 -73 -21 -66 -10 6 -12 64 -3 88 9 23 24 9 24 -22z"/>
<path d="M40347 26505 c-102 -36 -150 -157 -97 -243 61 -99 270 -95 337 7 43
63 27 139 -41 199 -57 50 -128 63 -199 37z m85 -127 c5 -33 -3 -78 -13 -78 -5
0 -9 23 -9 50 0 50 16 70 22 28z"/>
<path d="M12090 36649 c-1220 -81 -2565 -526 -3835 -1267 -430 -251 -943 -599
-1232 -834 -39 -32 -74 -58 -77 -58 -4 0 -52 20 -109 44 -276 117 -520 172
-865 196 -179 12 -259 28 -344 71 -272 137 -328 485 -115 715 142 153 359 193
592 107 80 -29 181 -50 192 -40 22 22 -121 225 -209 298 -196 160 -400 229
-682 229 -155 0 -280 -19 -414 -61 -432 -138 -715 -417 -857 -842 -61 -183
-70 -248 -70 -482 1 -179 4 -225 23 -312 131 -603 564 -1101 1112 -1278 30 -9
58 -21 63 -24 4 -4 -46 -48 -110 -98 -788 -609 -1303 -1545 -1507 -2733 -127
-738 -114 -1601 36 -2383 11 -59 18 -110 16 -113 -3 -2 -63 9 -134 26 -418
100 -811 115 -1189 45 -758 -141 -1302 -702 -1485 -1530 -119 -535 -81 -1083
101 -1465 60 -125 93 -179 175 -285 269 -349 715 -572 1284 -645 146 -18 434
-24 615 -11 165 12 464 56 573 85 l54 15 20 -47 c241 -560 727 -1211 1264
-1692 1163 -1042 2752 -1603 4904 -1730 448 -27 1241 -22 1615 9 50 4 92 6 95
4 2 -2 -58 -63 -135 -135 -581 -543 -1323 -1372 -2295 -2563 -806 -987 -1103
-1338 -1499 -1768 -95 -103 -216 -236 -269 -295 -132 -146 -282 -293 -361
-352 -36 -28 -69 -50 -72 -50 -4 0 -33 44 -64 98 -235 395 -430 609 -645 711
-188 89 -270 -10 -240 -290 16 -155 75 -392 146 -591 20 -58 21 -68 8 -68 -9
0 -84 22 -167 49 -462 150 -700 196 -956 189 -133 -4 -168 -9 -237 -32 -126
-41 -157 -83 -114 -153 42 -69 242 -199 414 -269 167 -67 588 -172 707 -177
32 -1 59 -4 59 -7 -1 -3 -35 -21 -78 -40 -109 -50 -368 -203 -567 -335 -510
-340 -671 -564 -459 -639 238 -84 540 -21 1027 212 92 44 167 79 167 76 0 -2
-42 -54 -93 -116 -257 -314 -433 -600 -478 -779 -33 -130 -11 -207 73 -248
213 -103 491 70 844 526 53 68 98 123 99 121 2 -2 -1 -28 -6 -58 -19 -116 -29
-355 -20 -460 19 -205 76 -321 187 -382 103 -55 178 -44 254 38 102 110 157
294 210 704 50 381 106 550 228 682 29 31 110 96 180 144 80 55 164 125 228
188 55 56 159 154 230 218 270 244 520 536 1034 1208 145 190 324 419 398 510
74 91 339 422 590 735 558 697 1020 1252 1052 1263 5 2 -14 -39 -42 -90 -28
-51 -82 -158 -120 -238 -418 -872 -668 -1791 -755 -2775 -24 -281 -24 -951 0
-1220 107 -1161 453 -2105 1041 -2839 113 -141 329 -360 426 -431 l81 -60 -5
-225 c-17 -863 -346 -1659 -950 -2305 -523 -559 -1309 -972 -2046 -1075 -201
-29 -492 -25 -667 9 -406 77 -753 291 -977 604 -79 110 -183 316 -226 447
-118 362 -130 801 -34 1189 53 215 157 465 259 622 249 386 735 517 1153 311
298 -147 460 -456 413 -783 -26 -175 -83 -301 -161 -358 -87 -63 -193 -52
-416 40 -255 105 -285 113 -404 114 -99 0 -109 -2 -165 -31 -74 -39 -148 -116
-183 -192 -23 -49 -27 -70 -27 -152 0 -117 19 -164 102 -252 152 -161 393
-290 613 -329 95 -17 271 -14 369 6 214 43 386 141 550 310 156 161 247 324
301 539 94 373 39 821 -149 1221 -156 331 -405 602 -676 738 -316 157 -742
206 -1113 126 -557 -120 -1079 -493 -1334 -955 -142 -257 -229 -533 -275 -870
-24 -182 -24 -614 0 -813 84 -678 304 -1250 640 -1666 90 -111 313 -326 429
-413 423 -317 922 -506 1523 -578 223 -27 658 -25 900 4 703 85 1318 307 1868
674 358 240 681 561 912 908 401 603 614 1381 618 2257 1 262 1 263 22 248
102 -74 302 -192 452 -267 l182 -91 36 -156 c298 -1270 380 -1596 465 -1857
98 -298 130 -426 130 -522 0 -65 -4 -81 -34 -135 -126 -228 -151 -529 -59
-717 63 -129 232 -273 396 -337 122 -48 172 -155 218 -467 23 -162 37 -226
114 -536 65 -263 127 -565 150 -735 10 -66 19 -208 22 -316 8 -285 -14 -422
-94 -589 -37 -76 -60 -109 -117 -165 -39 -39 -97 -84 -129 -100 -34 -18 -56
-36 -55 -44 2 -8 23 -25 48 -38 39 -21 56 -23 128 -20 l82 3 -22 -23 c-40 -43
-264 -182 -414 -257 -314 -157 -626 -265 -1314 -452 -151 -41 -381 -106 -510
-144 -306 -89 -383 -110 -403 -110 -9 0 -42 16 -74 36 -141 91 -287 134 -453
134 -59 0 -128 -6 -159 -15 -142 -37 -248 -129 -294 -254 -15 -40 -27 -79 -27
-87 0 -16 -11 -18 -25 -5 -28 26 -165 64 -251 68 -145 9 -198 -17 -278 -132
-21 -31 -23 -31 -166 9 -148 41 -239 31 -320 -33 -55 -43 -56 -43 -107 -17
-83 41 -183 67 -285 73 -95 6 -97 5 -121 -21 -29 -31 -54 -32 -141 -10 -67 18
-194 14 -257 -8 -151 -52 -209 -269 -133 -498 45 -134 106 -214 196 -259 97
-49 199 -36 302 37 l39 28 61 -32 c118 -63 264 -84 414 -60 92 14 93 14 135
-9 80 -45 147 -56 347 -54 140 1 197 -2 235 -14 335 -101 391 -108 525 -61
l75 26 60 -37 c96 -57 171 -77 318 -83 191 -7 343 25 502 105 119 61 231 162
207 188 -4 4 11 5 33 1 363 -60 709 -66 1130 -20 353 38 541 75 1115 221 490
124 560 140 853 193 269 49 418 88 538 139 216 93 302 180 355 356 22 72 25
259 5 350 -45 214 -150 448 -277 616 l-42 56 122 7 c141 8 176 14 176 31 0 17
-92 65 -126 65 -123 0 -222 213 -313 668 -98 489 -160 1025 -266 2312 -19 224
-33 329 -131 970 -155 1014 -305 1732 -479 2285 -13 44 -25 83 -25 87 0 3 188
7 418 7 641 1 961 23 1437 102 460 76 877 190 1280 350 182 72 550 253 699
344 536 325 962 721 1278 1190 45 66 83 122 84 124 7 8 303 -123 496 -220 322
-161 613 -329 1011 -587 540 -349 1031 -730 1892 -1468 317 -271 510 -467 675
-689 104 -140 172 -257 227 -395 23 -57 50 -111 60 -118 17 -12 106 -13 142
-1 9 3 33 -39 75 -132 131 -290 226 -439 376 -590 172 -174 328 -249 514 -249
286 0 545 196 878 663 296 416 509 828 933 1807 377 869 518 1158 744 1520 98
156 196 358 222 455 23 84 31 252 17 331 l-8 41 87 23 c180 48 317 142 368
252 50 109 30 284 -45 392 -39 58 -132 121 -201 135 -69 15 -164 14 -228 -3
-52 -13 -55 -13 -125 19 -103 47 -188 67 -280 67 -92 0 -156 -18 -229 -64
l-48 -31 -27 22 c-43 34 -123 79 -182 103 -46 18 -75 22 -170 22 -102 0 -124
-3 -190 -28 l-74 -28 -16 21 c-109 154 -212 221 -340 221 -184 0 -387 -154
-495 -375 -57 -116 -78 -204 -78 -330 -1 -259 106 -419 374 -565 52 -28 104
-61 117 -73 38 -35 26 -87 -46 -204 -33 -54 -131 -235 -217 -403 -311 -602
-484 -893 -718 -1207 -38 -51 -72 -93 -77 -93 -4 0 -10 14 -14 30 -3 17 -14
33 -23 36 -78 23 -782 425 -1378 787 -500 304 -518 320 -614 544 -68 159 -154
271 -277 359 -100 72 -182 105 -273 111 -69 5 -78 8 -74 23 6 21 -6 25 -92 35
-52 6 -82 21 -250 120 -910 539 -1350 781 -1652 911 -62 26 -113 52 -113 57 0
5 39 102 86 215 184 442 285 806 348 1259 44 316 51 425 51 888 0 591 -20 855
-91 1220 -330 1681 -1386 3060 -3060 3993 -51 28 -134 72 -184 98 -64 32 -89
49 -79 54 8 4 85 15 172 24 516 52 996 45 1872 -29 535 -45 625 -47 1710 -35
1030 11 1093 9 1382 -26 263 -32 526 -90 738 -165 102 -36 124 -40 170 -34 29
3 61 13 71 21 18 13 13 19 -71 102 -85 82 -190 152 -229 152 -9 0 -16 5 -16
11 0 8 30 10 103 7 129 -6 192 -33 266 -114 89 -98 143 -239 196 -514 83 -432
118 -539 207 -636 70 -76 200 -122 293 -102 166 35 249 302 231 746 l-8 174
104 -84 c289 -234 534 -386 707 -438 181 -55 301 7 301 156 0 156 -136 391
-365 632 -147 154 -231 213 -356 246 l-54 15 50 0 c28 1 145 6 260 11 601 29
920 117 965 266 11 36 10 46 -10 92 -79 184 -401 309 -970 376 l-195 23 75 22
c129 38 457 150 548 187 220 91 409 200 497 288 69 69 89 108 89 177 1 102
-79 192 -210 235 -86 28 -318 26 -464 -5 -250 -52 -553 -155 -834 -285 -44
-20 -81 -35 -83 -33 -2 2 24 50 57 107 163 283 230 531 186 684 -51 175 -308
277 -478 190 -59 -30 -120 -86 -178 -164 -101 -137 -119 -175 -302 -645 -86
-219 -153 -313 -265 -369 -127 -63 -384 -107 -813 -138 -254 -19 -1296 -16
-1940 5 -537 18 -1862 69 -2230 87 -113 5 -322 14 -465 20 -143 6 -465 19
-715 30 -250 11 -682 29 -960 40 -436 17 -707 34 -718 44 -1 2 57 38 130 82
331 196 805 532 1101 779 287 239 628 570 861 835 1279 1456 1976 3250 1976
5090 l0 235 197 -3 c684 -12 1452 169 1923 454 631 380 1012 1006 1104 1814
23 197 21 529 -4 724 -36 285 -123 571 -251 832 -294 599 -816 1058 -1439
1264 -410 135 -849 145 -1288 29 -518 -138 -1049 -460 -1503 -912 l-106 -106
-53 127 c-599 1437 -1925 2570 -3700 3161 -597 199 -1278 332 -1900 371 -191
11 -747 11 -930 -1z m2000 -1679 c333 -38 617 -107 909 -222 703 -276 1330
-778 1769 -1416 254 -369 473 -850 586 -1285 47 -180 117 -580 104 -593 -3 -2
-34 -9 -69 -15 -255 -40 -534 -143 -723 -267 -73 -48 -226 -190 -226 -210 0
-6 17 -16 38 -21 90 -26 94 -24 616 213 l493 224 112 12 c150 17 365 8 501
-20 208 -43 441 -133 651 -251 96 -54 131 -81 224 -174 414 -412 685 -1060
767 -1835 20 -191 17 -844 -5 -1090 -148 -1644 -828 -3176 -1997 -4494 -250
-283 -620 -639 -915 -881 -378 -311 -989 -720 -1201 -805 -84 -33 -160 -73
-366 -188 -305 -172 -843 -392 -1323 -541 -854 -266 -1731 -420 -2719 -477
-486 -28 -1224 -21 -1716 17 -1517 115 -2730 487 -3740 1147 -362 236 -661
483 -986 813 -688 701 -1065 1357 -1129 1964 -49 467 9 899 166 1234 91 193
252 403 384 501 49 36 56 38 300 79 1140 194 1471 253 1485 266 30 30 -8 45
-156 62 -178 21 -716 24 -854 5 -261 -35 -484 -97 -658 -183 -53 -26 -101 -44
-105 -40 -11 11 -72 288 -106 486 -35 197 -66 450 -81 650 -13 181 -13 700 0
880 64 858 305 1601 727 2236 234 353 563 696 862 898 684 463 1543 699 2369
652 626 -35 1160 -171 1698 -431 157 -75 191 -88 252 -94 69 -7 71 -6 76 16 2
13 14 91 25 173 184 1282 1112 2399 2348 2825 290 100 540 153 893 189 169 17
533 12 720 -9z m7060 -2025 c167 -30 323 -92 464 -187 84 -57 252 -228 311
-318 159 -244 238 -525 238 -855 0 -609 -250 -1080 -748 -1409 -290 -191 -546
-272 -980 -306 -132 -11 -150 -10 -314 14 -96 14 -189 26 -207 26 -32 0 -33 2
-60 83 -71 213 -185 455 -286 606 -90 135 -238 298 -340 375 -20 15 -42 42
-47 59 -33 99 -97 502 -108 668 l-6 97 48 88 c170 315 417 591 702 782 209
141 486 246 753 287 127 19 449 14 580 -10z m-18015 -5846 c372 -45 713 -301
905 -676 l42 -83 -76 -81 c-82 -87 -197 -251 -251 -359 -42 -84 -74 -201 -125
-465 -59 -309 -99 -442 -160 -530 -65 -94 -100 -106 -322 -106 -312 0 -566 68
-788 212 -96 62 -255 228 -313 325 -160 270 -195 632 -92 949 99 304 319 566
593 706 137 70 302 113 452 118 25 0 86 -4 135 -10z m2505 -437 c50 -6 27 -12
-255 -60 -650 -112 -886 -152 -898 -152 -46 0 170 95 308 135 223 65 631 102
845 77z m19088 -3827 c68 -20 128 -76 137 -128 9 -48 -16 -180 -57 -296 -60
-173 -179 -385 -314 -564 -24 -31 -44 -63 -44 -71 0 -17 41 -35 96 -43 38 -5
51 -1 111 34 369 218 939 386 1313 387 103 1 132 -3 163 -18 80 -40 69 -103
-39 -216 -89 -93 -176 -153 -326 -225 -184 -88 -414 -162 -743 -240 -170 -40
-185 -45 -185 -60 0 -33 46 -45 281 -70 626 -68 950 -165 1034 -310 34 -57 32
-96 -5 -138 -94 -107 -366 -156 -910 -164 -278 -4 -349 -8 -368 -19 -12 -8
-20 -19 -17 -24 3 -5 45 -28 92 -50 249 -116 507 -353 623 -572 54 -100 112
-301 95 -328 -8 -12 -33 -1 -195 89 -165 91 -411 239 -625 376 -162 104 -237
135 -286 120 -20 -7 -21 -12 -15 -64 39 -358 27 -678 -30 -853 -45 -137 -140
20 -308 511 -43 123 -95 260 -118 305 -115 229 -236 341 -423 392 -39 10 -125
19 -245 23 -183 7 -230 16 -230 45 0 49 157 109 380 146 185 31 261 50 267 67
13 34 -29 52 -241 97 -115 25 -211 47 -213 49 -2 2 56 7 129 10 243 11 463 74
527 151 19 23 -5 48 -77 82 -97 46 -213 64 -486 74 -136 5 -250 11 -252 13 -2
2 113 59 257 127 143 68 263 128 266 134 4 5 -6 19 -21 31 -17 14 -24 25 -17
29 6 4 63 11 128 15 118 9 195 30 268 72 74 44 121 148 220 490 72 248 151
414 267 562 34 42 55 46 136 22z m-8078 -3504 c583 -70 1049 -205 1525 -439
479 -236 883 -526 1289 -922 527 -516 963 -1123 1324 -1845 l70 -140 13 -165
c21 -253 19 -975 -4 -1200 -60 -594 -149 -963 -379 -1575 -300 -801 -485
-1257 -551 -1362 l-26 -41 -60 5 -59 6 -28 -44 c-434 -694 -1021 -1195 -1829
-1563 -695 -316 -1586 -506 -2503 -533 -355 -10 -1174 24 -1367 57 -405 70
-779 241 -1085 498 -114 95 -339 325 -487 498 -1139 1329 -1570 2951 -1222
4599 178 845 519 1684 939 2310 260 388 572 720 889 946 l86 61 7 -234 c7
-268 38 -529 93 -799 58 -288 76 -349 107 -372 34 -25 135 -36 143 -16 3 8 16
120 30 249 54 508 132 820 273 1093 30 59 60 106 66 104 21 -7 158 -173 227
-276 125 -186 223 -405 276 -617 29 -117 40 -131 115 -144 69 -13 80 -3 147
132 147 299 218 664 180 934 -9 69 -15 83 -60 142 -31 40 -49 73 -47 86 3 19
8 21 72 19 129 -5 274 -58 401 -148 84 -60 210 -194 279 -298 65 -97 106 -127
175 -127 50 0 53 6 86 142 48 198 52 457 11 672 -17 84 -41 134 -105 211 -72
87 -68 90 179 119 19 2 170 3 335 1 228 -2 342 -8 475 -24z m-10409 -3259 c54
-35 184 -171 303 -315 92 -112 276 -399 276 -430 0 -35 63 -50 194 -46 89 3
120 1 123 -9 8 -21 -107 -121 -201 -174 -114 -64 -150 -91 -176 -133 -29 -46
-26 -83 6 -95 62 -24 243 -4 368 39 33 12 61 19 63 17 4 -4 -201 -228 -256
-280 -65 -62 -35 -86 108 -86 111 0 196 21 336 85 81 37 104 41 136 25 17 -10
15 -16 -37 -95 -49 -72 -74 -98 -178 -178 -66 -52 -163 -122 -213 -156 -51
-34 -99 -71 -107 -84 -8 -12 -24 -92 -36 -177 -48 -354 -120 -716 -182 -907
-66 -209 -100 -272 -128 -238 -30 36 -42 131 -47 380 -5 256 4 395 43 672 9
62 14 120 10 128 -8 22 -67 45 -115 45 -38 0 -42 -4 -107 -87 -221 -285 -308
-383 -480 -544 -261 -242 -353 -319 -381 -319 -13 0 -15 10 -10 63 22 232 199
506 641 985 152 166 168 188 145 203 -22 14 -81 29 -115 29 -18 0 -132 -42
-255 -94 -710 -296 -1101 -417 -1124 -347 -3 10 2 41 11 67 70 208 379 419
1112 762 72 34 132 66 132 71 0 23 -65 45 -213 72 -331 61 -598 132 -655 175
-77 59 -195 168 -223 207 -32 44 -37 82 -13 91 82 31 668 -77 1159 -215 138
-38 198 -47 223 -31 10 7 -1 39 -43 138 -70 162 -139 363 -161 474 -23 112
-26 316 -4 330 21 13 21 13 71 -18z m20316 -3232 c29 -17 59 -40 67 -53 7 -12
48 -163 91 -335 69 -278 80 -315 101 -324 30 -14 107 -2 136 22 22 17 23 25
23 152 0 148 -18 240 -65 341 l-28 58 22 14 c115 75 260 61 369 -36 l37 -34
18 -258 c15 -210 21 -261 35 -274 10 -10 39 -18 76 -21 76 -5 91 9 125 118 33
104 35 214 5 302 l-20 61 38 45 c73 86 153 104 267 61 l59 -21 -9 -202 c-12
-306 -13 -286 18 -309 15 -11 49 -22 77 -25 45 -4 52 -2 76 23 14 16 40 57 57
93 53 107 51 224 -6 352 -15 34 109 53 163 26 73 -38 142 -152 160 -264 19
-117 -13 -217 -90 -286 -58 -53 -111 -74 -227 -90 -104 -15 -142 -28 -142 -49
0 -7 7 -44 15 -82 29 -136 14 -266 -45 -409 -17 -41 -90 -178 -162 -303 -284
-497 -455 -841 -876 -1758 -283 -618 -589 -1247 -708 -1456 -256 -452 -491
-688 -725 -729 -192 -33 -399 92 -567 342 -97 146 -166 289 -317 663 -170 421
-180 463 -93 396 24 -18 83 -59 133 -92 85 -56 93 -59 150 -59 81 0 100 14 91
65 -4 21 -45 112 -92 203 -46 91 -84 172 -84 179 0 21 75 16 175 -12 151 -42
235 -29 235 35 0 35 -42 115 -103 199 -26 35 -47 66 -47 70 0 3 65 6 144 7
123 1 149 4 178 21 27 16 34 26 36 58 2 22 1 54 -3 72 -9 47 -95 171 -187 269
-80 84 -80 85 -62 105 18 20 74 54 78 47 1 -2 9 -40 18 -86 20 -97 29 -112 72
-112 79 0 102 16 207 138 249 292 493 670 766 1185 162 306 426 849 416 857
-4 4 -37 17 -73 30 -246 86 -393 230 -462 450 -19 63 -23 97 -23 210 0 131 1
137 32 203 41 86 119 168 196 207 50 25 72 30 131 30 60 0 79 -5 123 -30z
m-11786 -9888 c96 -196 143 -261 214 -293 22 -10 57 -19 78 -19 79 0 100 57
113 300 6 120 22 190 43 190 6 0 41 -26 79 -59 79 -68 142 -103 189 -104 43
-1 53 10 61 68 l7 48 49 -54 c152 -168 264 -393 296 -592 8 -47 11 -126 8
-204 -4 -109 -10 -142 -37 -221 -17 -52 -43 -113 -56 -137 -38 -64 -113 -129
-201 -173 -136 -69 -267 -101 -609 -152 -254 -38 -318 -51 -880 -190 -489
-120 -570 -139 -765 -175 -219 -41 -442 -66 -646 -72 -254 -8 -444 11 -705 68
l-55 12 -95 -94 c-156 -156 -335 -241 -514 -243 -105 -1 -175 20 -235 71 -43
38 -36 6 -135 580 -30 177 -58 329 -61 337 -9 24 23 108 56 148 49 59 108 81
209 80 47 0 109 -5 136 -11 28 -6 127 -26 220 -46 256 -53 273 -52 654 45
1056 269 1729 519 2284 848 44 26 99 69 124 95 45 48 45 50 39 101 -13 118 24
75 135 -152z m-4134 -1124 c73 -27 76 -33 58 -109 -8 -36 -15 -112 -15 -174 0
-137 27 -256 87 -374 23 -47 41 -86 40 -87 -1 0 -90 -4 -199 -8 l-196 -6 -76
310 c-42 170 -76 316 -76 324 0 8 16 28 36 45 122 108 209 128 341 79z m-1570
-92 c3 -3 -13 -26 -36 -52 -88 -100 -93 -250 -15 -411 14 -29 23 -57 19 -62
-3 -6 -22 -15 -42 -20 -90 -25 -160 58 -183 218 -22 155 28 291 120 330 24 10
126 8 137 -3z m987 -4 c3 -5 -7 -37 -21 -73 -34 -84 -43 -216 -19 -306 20 -79
62 -164 115 -231 23 -28 41 -54 41 -57 0 -16 -269 1 -287 19 -9 9 -112 549
-107 558 10 16 96 70 132 83 41 15 138 20 146 7z m-558 -58 l72 -6 -26 -56
c-34 -75 -41 -179 -17 -253 22 -69 48 -112 103 -171 24 -25 39 -48 35 -51 -29
-18 -128 -37 -189 -37 -81 0 -137 17 -193 57 l-38 27 3 131 c3 71 7 186 10
254 l6 123 82 -6 c44 -3 113 -9 152 -12z"/>
<path d="M13217 33708 c-329 -30 -640 -250 -795 -563 -57 -114 -58 -123 -28
-136 15 -7 43 -9 72 -4 44 6 57 16 173 129 138 134 188 171 289 219 57 27 81
32 163 35 91 4 102 2 225 -39 154 -50 233 -55 326 -20 92 35 162 134 145 203
-30 116 -302 200 -570 176z"/>
<path d="M13141 32644 c-174 -24 -297 -53 -454 -104 -292 -97 -528 -234 -720
-419 -286 -277 -455 -608 -534 -1051 -24 -132 -27 -168 -27 -415 0 -232 3
-291 22 -415 177 -1136 852 -1986 1852 -2331 679 -235 1431 -176 1993 154 719
424 1028 1300 817 2322 -92 447 -312 931 -558 1224 -100 119 -325 341 -442
434 -47 38 -148 111 -225 162 -331 221 -653 352 -1035 422 -176 32 -527 41
-689 17z m448 -70 c543 -70 1139 -371 1578 -798 220 -213 321 -346 464 -611
375 -694 458 -1417 237 -2070 -41 -121 -161 -369 -233 -480 -238 -370 -555
-616 -925 -720 -568 -160 -1259 -13 -1885 400 -702 463 -1125 1118 -1241 1920
-25 169 -25 496 0 669 55 391 201 753 425 1056 75 102 248 274 349 348 200
148 441 246 697 286 124 19 386 19 534 0z"/>
<path d="M13520 31839 c-347 -61 -623 -291 -748 -622 -59 -158 -76 -258 -76
-457 0 -252 40 -445 143 -684 105 -244 232 -427 436 -631 214 -214 414 -346
650 -430 193 -68 260 -80 460 -80 165 0 188 2 278 27 477 133 755 554 734
1113 -10 264 -68 488 -192 736 -248 496 -693 872 -1185 1001 -101 26 -135 30
-280 34 -91 1 -190 -1 -220 -7z m354 -129 c377 -99 686 -500 686 -891 0 -120
-12 -183 -56 -277 -44 -96 -125 -181 -216 -226 -91 -46 -162 -60 -274 -53
-423 25 -814 468 -814 921 0 157 52 297 147 397 127 133 325 182 527 129z"/>
<path d="M7235 31116 c-201 -39 -444 -163 -520 -266 -80 -108 36 -245 218
-258 60 -4 73 -2 130 26 34 18 100 66 147 107 51 46 115 91 159 113 69 34 82
37 181 40 124 5 215 -14 358 -73 158 -66 165 -68 227 -55 34 7 55 17 55 25 0
17 -109 114 -193 173 -85 59 -206 115 -318 147 -116 33 -330 43 -444 21z"/>
<path d="M7985 30413 c-762 -61 -1400 -626 -1705 -1508 -238 -692 -204 -1380
101 -1994 383 -774 1139 -1247 1949 -1218 232 8 419 49 618 136 344 149 668
442 895 809 310 500 464 1134 404 1652 -116 983 -678 1754 -1475 2020 -252 84
-546 123 -787 103z m553 -84 c564 -107 1058 -588 1340 -1305 122 -310 202
-695 202 -971 0 -197 -50 -512 -116 -738 -243 -824 -798 -1375 -1544 -1532
-108 -23 -150 -27 -305 -27 -198 0 -275 11 -440 66 -584 194 -1072 814 -1280
1623 -69 268 -80 360 -80 665 0 246 3 288 24 400 65 348 182 647 359 915 101
154 159 226 285 354 226 229 478 388 769 485 281 94 526 114 786 65z"/>
<path d="M8315 29465 c-92 -20 -152 -43 -242 -90 -452 -238 -737 -856 -683
-1480 49 -570 326 -1032 732 -1220 228 -105 496 -107 723 -5 346 155 612 528
712 999 25 117 27 144 27 366 1 223 -1 249 -26 366 -119 554 -441 947 -863
1054 -112 29 -277 33 -380 10z m465 -175 c91 -17 177 -66 256 -145 59 -59 81
-91 123 -176 76 -157 86 -204 85 -404 0 -159 -2 -176 -28 -255 -72 -216 -180
-353 -338 -425 -179 -82 -363 -41 -519 114 -271 271 -291 791 -43 1099 126
156 291 225 464 192z"/>
<path d="M16592 28038 c-528 -614 -1218 -1225 -1871 -1656 -815 -537 -1769
-999 -2796 -1354 -110 -38 -213 -75 -230 -82 -66 -31 -591 -180 -910 -260
-553 -138 -1043 -236 -1655 -332 -559 -87 -1053 -134 -1596 -152 -152 -5 -227
-12 -237 -20 -17 -15 -12 -48 33 -187 33 -106 163 -454 225 -607 92 -224 187
-383 276 -461 26 -23 74 -78 107 -123 176 -238 472 -547 697 -726 478 -380
1014 -635 1645 -783 63 -15 149 -31 190 -35 41 -4 107 -15 145 -23 228 -51
766 -71 1135 -43 370 29 749 90 1165 186 255 59 265 62 490 129 670 203 1268
454 1754 736 280 162 625 389 751 494 67 56 129 120 130 134 0 5 57 70 128
145 70 76 161 178 203 227 474 564 794 1260 909 1983 11 70 22 141 25 157 3
17 12 107 20 200 63 711 -83 1679 -355 2359 -71 178 -76 189 -102 213 -28 26
-70 43 -108 43 -24 0 -48 -24 -168 -162z m251 -179 c159 -440 276 -1019 313
-1551 l7 -96 -84 -108 c-363 -470 -805 -906 -1284 -1267 -77 -59 -143 -103
-146 -99 -4 4 -30 81 -58 172 -105 341 -222 673 -285 809 -145 314 -196 470
-196 604 0 130 8 141 233 310 495 372 951 798 1358 1269 46 53 87 93 91 90 3
-4 27 -64 51 -133z m-1843 -1729 c92 -235 192 -508 270 -736 61 -178 222 -684
234 -736 7 -32 2 -36 -222 -172 -781 -473 -1658 -834 -2680 -1102 -121 -31
-145 -35 -153 -23 -9 15 -129 334 -291 774 -55 149 -121 322 -148 385 -59 141
-71 184 -71 261 -1 68 24 118 68 138 16 8 78 30 138 51 458 158 986 375 1410
579 389 188 978 524 1309 747 28 18 53 30 57 26 4 -4 39 -90 79 -192z m2156
-342 c-36 -694 -221 -1343 -541 -1904 -79 -138 -228 -359 -327 -485 -96 -124
-248 -299 -258 -299 -4 0 -15 46 -25 103 -70 407 -169 866 -270 1242 l-35 130
22 15 c67 46 317 234 403 304 332 268 678 607 938 918 49 59 92 108 95 108 3
0 2 -60 -2 -132z m-5322 -1220 c116 -324 179 -493 342 -928 67 -179 119 -328
115 -332 -21 -22 -885 -175 -1286 -227 -403 -53 -1074 -114 -1335 -122 -94 -3
-108 4 -137 69 -115 261 -348 970 -369 1127 -7 49 7 89 39 110 14 9 106 29
213 46 552 88 1069 193 1504 305 199 52 636 174 740 208 25 8 52 15 61 15 11
1 41 -69 113 -271z m3725 -120 c19 -60 119 -470 156 -638 20 -91 53 -244 75
-340 63 -279 72 -407 38 -524 -17 -58 -119 -156 -318 -305 -507 -380 -986
-631 -1675 -878 -184 -66 -585 -193 -608 -193 -21 0 -155 280 -334 695 -91
210 -393 961 -393 975 0 4 66 24 148 44 809 203 1589 491 2248 831 203 105
492 266 587 329 29 19 55 35 59 35 3 1 11 -14 17 -31z m-6604 -210 c2 -7 26
-98 54 -203 82 -311 185 -622 303 -920 33 -82 62 -155 65 -161 6 -17 -574 -27
-947 -16 -346 10 -370 15 -448 95 -83 85 -285 462 -382 712 -41 106 -120 349
-120 370 0 7 91 15 253 23 295 13 630 42 952 81 282 35 265 34 270 19z m3540
-1409 c213 -529 337 -815 411 -954 110 -203 125 -277 68 -345 -30 -35 -85 -53
-295 -100 -282 -62 -898 -152 -1232 -179 -162 -14 -425 -14 -542 -1 -158 18
-315 67 -381 119 -92 72 -457 609 -655 964 -77 138 -269 516 -269 530 0 2 57
7 128 11 871 46 1765 157 2463 305 74 16 138 28 144 27 5 -2 78 -171 160 -377z
m-3730 35 c308 -3 569 -5 581 -4 33 0 107 -72 162 -158 57 -89 104 -180 193
-377 67 -148 138 -274 252 -445 92 -137 227 -324 311 -428 36 -45 66 -84 66
-87 0 -7 -226 56 -370 105 -730 245 -1338 681 -1812 1300 -94 123 -93 114 -12
106 38 -4 321 -9 629 -12z"/>
<path d="M12159 26797 c-56 -30 -89 -85 -89 -148 0 -96 84 -163 195 -157 109
7 173 57 183 143 14 131 -161 229 -289 162z m116 -158 c-4 -21 -10 -39 -15
-39 -13 0 -20 59 -9 88 9 24 11 25 20 9 6 -10 8 -36 4 -58z"/>
<path d="M11044 26511 c-81 -20 -134 -84 -136 -165 -1 -94 72 -156 185 -156
95 0 178 58 192 134 7 35 -13 96 -43 129 -40 45 -136 73 -198 58z m66 -156 c0
-48 -15 -68 -25 -34 -9 27 3 91 16 84 5 -4 9 -26 9 -50z"/>
<path d="M22970 35120 c-51 -38 -99 -70 -105 -70 -6 0 -60 16 -120 36 -64 21
-112 31 -117 26 -5 -5 7 -57 32 -127 46 -136 50 -116 -50 -236 -75 -90 -71
-94 82 -86 l109 6 60 -82 c78 -109 95 -127 113 -127 19 0 25 12 68 150 l33
105 114 32 c62 18 115 34 117 36 2 2 -44 36 -102 77 l-106 74 4 123 c4 122 1
133 -31 133 -4 0 -50 -31 -101 -70z m115 -228 c25 -22 70 -52 99 -68 30 -16
53 -30 52 -32 -2 -1 -40 -12 -85 -22 -45 -11 -94 -26 -110 -34 -29 -15 -62
-78 -76 -143 -3 -18 -10 -33 -13 -32 -4 0 -20 21 -37 46 -51 79 -71 88 -186
86 l-99 -1 50 58 c87 100 92 139 36 260 -14 30 -24 56 -22 57 2 2 33 -8 70
-22 91 -34 146 -33 200 4 23 16 49 37 57 47 12 15 14 7 17 -74 l3 -91 44 -39z"/>
<path d="M52291 35120 c-52 -38 -98 -70 -103 -70 -4 0 -54 16 -110 35 -106 36
-138 42 -138 26 0 -5 18 -62 41 -126 l41 -116 -25 -37 c-14 -20 -48 -64 -76
-96 -27 -33 -48 -63 -45 -68 3 -4 62 -8 132 -8 l127 -1 65 -95 c62 -90 99
-121 119 -98 4 5 23 60 42 123 39 129 31 123 176 162 43 11 82 25 86 29 5 4
-38 41 -95 82 l-103 74 0 124 c0 118 -1 125 -20 128 -13 2 -56 -24 -114 -68z
m114 -227 c22 -19 66 -49 99 -68 l58 -33 -71 -16 c-148 -34 -163 -46 -196
-160 l-17 -58 -34 51 c-52 77 -71 86 -186 86 -54 -1 -98 0 -98 2 0 1 20 25 45
53 63 71 78 104 71 157 -3 24 -14 60 -25 81 -10 20 -22 47 -26 60 l-7 23 39
-17 c21 -9 63 -23 93 -30 67 -16 100 -8 162 41 l43 35 5 -86 c5 -86 5 -87 45
-121z"/>
<path d="M22862 28264 c-7 -3 -64 -108 -126 -233 l-114 -227 -84 -11 c-123
-16 -370 -53 -395 -58 -13 -3 -23 -10 -23 -16 0 -6 84 -92 187 -193 l187 -183
-18 -101 c-9 -56 -32 -163 -51 -239 -37 -156 -35 -165 32 -166 30 -1 80 21
241 106 111 59 207 107 214 107 6 0 101 -47 210 -105 166 -88 207 -105 244
-105 39 0 44 3 44 23 0 12 -18 126 -40 252 -22 127 -40 236 -40 242 0 21 126
148 247 250 62 52 113 99 113 104 0 18 -48 28 -278 60 l-232 32 -109 222 c-60
123 -113 225 -117 228 -15 9 -78 16 -92 11z m114 -340 c78 -166 139 -197 411
-213 79 -5 146 -11 149 -13 2 -3 -73 -79 -167 -169 l-172 -163 6 -81 c4 -44
20 -134 36 -200 16 -66 28 -121 26 -123 -2 -2 -47 22 -101 54 -111 65 -210
103 -270 104 -59 0 -148 -33 -249 -94 -50 -30 -91 -53 -93 -51 -2 1 9 47 23
101 34 131 43 249 22 290 -39 75 -271 288 -337 309 -46 14 -13 23 118 29 210
11 326 38 380 89 31 29 72 104 113 205 l34 83 14 -33 c8 -18 33 -74 57 -124z"/>
<path d="M52172 28258 c-6 -7 -58 -109 -116 -227 -58 -118 -108 -216 -110
-218 -4 -4 -194 -35 -356 -58 -128 -18 -150 -23 -150 -34 0 -4 84 -90 186
-192 l186 -184 -6 -55 c-3 -30 -19 -116 -36 -190 -63 -275 -63 -256 2 -266 31
-5 61 8 247 106 197 104 215 111 239 100 15 -6 107 -54 205 -106 138 -73 189
-95 222 -96 24 -1 47 1 51 4 3 4 -12 114 -35 245 -23 131 -41 249 -41 262 0
37 51 92 209 228 80 69 146 130 146 136 0 17 -40 25 -284 60 l-224 32 -111
222 c-80 162 -116 224 -133 232 -32 15 -78 14 -91 -1z m92 -261 c35 -88 85
-173 123 -209 51 -48 145 -69 378 -84 l100 -6 -174 -169 -174 -169 6 -73 c4
-39 20 -128 37 -197 16 -68 28 -126 26 -128 -2 -2 -29 13 -61 33 -171 110
-293 144 -396 110 -46 -15 -165 -76 -235 -122 -21 -13 -21 -11 7 94 15 60 31
140 34 180 7 66 5 76 -18 115 -46 79 -236 256 -322 301 l-30 15 25 6 c14 2 75
7 135 11 141 7 222 20 291 46 70 26 107 75 166 216 24 57 45 103 48 103 3 0
18 -33 34 -73z"/>
<path d="M31527 22163 c-11 -3 -128 -68 -260 -145 -133 -77 -246 -141 -252
-141 -5 0 -122 53 -260 118 -191 91 -262 119 -300 122 -27 2 -55 0 -62 -4 -8
-6 7 -90 54 -314 39 -179 63 -316 60 -330 -10 -40 -107 -146 -272 -298 -176
-163 -177 -165 -64 -181 35 -6 171 -21 302 -34 162 -16 243 -28 252 -37 8 -8
76 -128 151 -268 121 -222 142 -256 171 -267 36 -16 81 -18 101 -6 7 5 68 134
136 287 81 182 131 282 143 287 10 4 126 28 258 53 368 70 345 64 345 83 0 9
-106 111 -235 226 l-235 209 0 56 c0 55 30 246 70 443 11 53 20 103 20 112 0
24 -75 41 -123 29z m-97 -323 c-19 -90 -30 -176 -30 -227 l0 -82 48 -63 c80
-105 303 -289 403 -331 34 -14 34 -15 9 -21 -14 -3 -92 -13 -175 -21 -250 -27
-388 -65 -441 -122 -34 -37 -83 -134 -129 -260 l-38 -103 -62 128 c-77 157
-132 222 -212 252 -82 31 -229 50 -380 50 -75 0 -133 4 -133 9 0 5 88 103 196
217 l197 208 -6 66 c-7 79 -42 226 -103 423 -5 15 10 10 68 -23 190 -108 326
-155 422 -148 75 6 192 59 311 141 44 30 81 54 82 53 1 -1 -11 -67 -27 -146z"/>
<path d="M1938 22014 l-247 -144 -253 120 c-249 119 -331 146 -365 122 -10 -6
-1 -60 36 -232 26 -124 57 -266 67 -317 l18 -91 -30 -43 c-16 -23 -113 -124
-216 -223 -148 -142 -185 -183 -175 -193 16 -16 95 -27 377 -54 207 -20 237
-25 254 -44 10 -11 80 -132 155 -270 134 -247 137 -250 178 -265 83 -28 82
-29 223 290 l126 284 95 18 c52 10 188 37 303 58 210 41 226 45 226 59 0 5
-105 102 -232 216 -128 114 -237 218 -242 231 -11 27 9 175 55 409 42 219 43
215 -54 215 -48 -1 -69 -11 -299 -146z m197 -46 c-3 -13 -15 -63 -26 -113 -13
-52 -24 -139 -26 -205 l-5 -115 32 -47 c63 -95 278 -278 395 -337 36 -18 53
-32 45 -35 -8 -3 -85 -12 -170 -21 -234 -24 -373 -57 -437 -103 -40 -29 -87
-112 -133 -237 -23 -61 -44 -119 -49 -129 -6 -16 -20 5 -69 105 -34 68 -77
146 -97 172 -68 90 -184 124 -457 134 -98 3 -178 9 -178 12 0 3 88 98 195 211
l194 205 1 60 c0 59 -37 233 -79 365 -12 36 -21 71 -21 78 0 8 28 -3 73 -28
190 -108 327 -156 419 -147 72 6 207 69 313 145 39 28 73 51 78 51 4 1 5 -9 2
-21z"/>
<path d="M6912 20048 c-5 -7 -48 -93 -95 -190 -47 -98 -89 -178 -94 -178 -32
0 -399 -62 -406 -69 -4 -4 63 -75 149 -156 l156 -149 -7 -53 c-4 -30 -22 -120
-41 -201 -32 -137 -33 -148 -17 -159 9 -7 26 -13 38 -13 11 0 99 41 195 92
l175 92 165 -86 c163 -84 215 -104 238 -89 9 5 3 58 -23 210 -19 112 -35 208
-35 213 0 15 100 116 204 206 79 68 95 87 82 94 -9 5 -100 21 -203 36 -104 15
-194 31 -201 36 -7 4 -52 85 -98 180 -47 94 -92 177 -101 184 -9 6 -29 12 -44
12 -14 0 -31 -6 -37 -12z m76 -205 c30 -83 82 -164 120 -189 44 -30 113 -44
255 -51 64 -3 117 -9 117 -12 0 -4 -64 -67 -141 -141 l-141 -134 6 -60 c3 -34
15 -99 26 -146 11 -47 22 -95 25 -108 l6 -24 -43 27 c-24 15 -81 45 -126 67
-131 65 -211 55 -365 -44 -26 -17 -50 -28 -53 -25 -3 2 5 40 16 83 12 44 24
109 27 146 6 65 5 68 -31 117 -46 63 -143 152 -219 201 l-57 38 87 6 c132 10
237 25 289 43 38 13 52 25 83 72 20 32 47 87 61 124 13 37 27 67 31 67 3 0 16
-26 27 -57z"/>
<path d="M36145 19870 c-52 -104 -101 -190 -108 -190 -11 0 -291 -43 -364 -55
-18 -3 -33 -11 -33 -18 0 -7 68 -76 150 -155 115 -110 150 -149 150 -168 0
-28 -41 -233 -65 -322 -13 -52 -13 -58 2 -69 32 -24 66 -13 239 78 l174 90
162 -85 c173 -90 233 -110 244 -82 3 9 -9 106 -27 215 -30 181 -32 202 -19
227 14 25 113 118 235 221 37 31 47 44 39 53 -6 6 -101 25 -210 41 -118 17
-201 34 -207 41 -4 7 -47 90 -93 185 -46 94 -91 174 -100 177 -9 3 -29 6 -45
6 -28 0 -33 -9 -124 -190z m284 -216 c46 -30 161 -53 271 -54 41 0 81 -4 88
-9 9 -5 -28 -47 -129 -144 l-141 -136 7 -53 c4 -29 18 -102 31 -162 13 -60 24
-110 24 -112 0 -2 -25 12 -56 32 -197 126 -295 129 -475 13 -25 -16 -48 -29
-51 -29 -3 0 3 29 12 64 10 35 24 98 30 139 11 65 10 78 -5 110 -22 47 -200
219 -256 248 -24 12 -39 23 -34 25 6 1 71 8 146 14 241 19 286 45 354 209 l38
92 54 -111 c43 -89 60 -115 92 -136z"/>
</g>
</svg>
