<?xml version="1.0" standalone="no"?>
<!DOCTYPE svg PUBLIC "-//W3C//DTD SVG 20010904//EN"
 "http://www.w3.org/TR/2001/REC-SVG-20010904/DTD/svg10.dtd">
<svg version="1.0" xmlns="http://www.w3.org/2000/svg"
 width="2705.000000pt" height="1714.000000pt" viewBox="0 0 2705.000000 1714.000000"
 preserveAspectRatio="xMidYMid meet">

<g transform="translate(0.000000,1714.000000) scale(0.100000,-0.100000)"
fill="#000000" stroke="none">
<path d="M0 8570 l0 -8570 13525 0 13525 0 0 8570 0 8570 -6780 0 c-4513 0
-6780 -3 -6780 -10 0 -5 6 -9 13 -7 7 1 12 -9 12 -28 0 -68 -95 -65 -166 6
l-39 39 -1190 0 c-1146 0 -1190 -1 -1199 -18 -7 -13 -6 -23 2 -31 18 -18 -18
-41 -64 -41 -30 0 -43 7 -68 35 -17 20 -31 40 -31 45 0 7 -1929 10 -5380 10
l-5380 0 0 -8570z m21001 8534 c26 -24 24 -50 -7 -79 -30 -28 -120 -50 -165
-40 -58 13 -62 80 -6 115 53 33 144 35 178 4z m-7230 -16 c5 -8 4 -15 -3 -17
-20 -7 -57 -49 -50 -56 4 -5 -6 1 -23 11 -21 14 -27 15 -20 4 14 -22 15 -39 3
-47 -7 -3 -8 -1 -4 5 11 17 -9 15 -24 -3 -15 -18 -37 -19 -43 -2 -3 6 -6 2 -6
-10 -2 -44 -31 -18 -31 27 0 25 48 80 85 96 35 16 104 12 116 -8z m8729 -143
c-25 -25 -61 -57 -80 -71 -19 -14 -2 6 39 45 82 78 112 97 41 26z m-11632
-277 c19 -19 14 -127 -7 -175 -20 -44 -57 -65 -72 -42 -11 17 -12 109 -1 109
4 0 7 15 8 33 0 35 29 87 48 87 7 0 17 -5 24 -12z m3564 -84 c56 -29 79 -106
39 -131 -15 -10 -20 -10 -24 0 -4 14 -39 16 -49 2 -5 -6 -8 -5 -8 2 0 7 -6 10
-14 7 -8 -3 -17 0 -21 6 -5 8 -11 7 -23 -2 -9 -7 -13 -8 -9 -2 9 15 -19 38
-37 31 -32 -12 -35 52 -3 80 37 35 89 37 149 7z m2963 -244 c-7 -11 -65 -43
-65 -36 0 4 62 45 68 46 2 0 0 -5 -3 -10z m2735 -20 c28 -52 -89 -195 -144
-174 -19 7 34 103 80 143 19 17 32 31 29 31 -4 0 -3 5 0 10 10 16 23 12 35
-10z m-3005 -80 c9 -16 13 -30 11 -30 -3 0 -12 14 -21 30 -9 17 -13 30 -11 30
3 0 12 -13 21 -30z m-9810 10 c-3 -5 -11 -10 -17 -10 -6 0 -19 -6 -27 -14 -16
-14 -146 -86 -156 -86 -35 0 64 70 142 100 56 22 67 24 58 10z m11889 -53 c-3
-8 2 -20 11 -27 8 -7 15 -23 15 -36 0 -13 4 -24 10 -24 5 0 9 -20 8 -44 0 -24
3 -49 7 -56 9 -15 -12 -30 -43 -30 -54 0 -104 100 -83 163 6 17 19 39 28 49
19 21 55 25 47 5z m-2044 -17 c6 -11 8 -20 6 -20 -3 0 -10 9 -16 20 -6 11 -8
20 -6 20 3 0 10 -9 16 -20z m-10130 -53 c-17 -24 -54 -66 -83 -93 -28 -27 -45
-40 -37 -29 22 30 141 165 147 165 2 0 -10 -20 -27 -43z m8159 -148 c87 -42
237 -191 316 -313 58 -89 162 -291 237 -461 163 -369 239 -718 209 -963 -17
-141 -35 -180 -110 -246 l-64 -56 -92 0 -92 0 -18 48 c-124 329 -337 654 -604
922 -101 102 -136 150 -109 150 4 0 8 5 8 11 0 7 -10 5 -25 -5 -25 -16 -27
-16 -83 27 -76 58 -177 126 -199 134 -10 3 9 -13 42 -37 102 -73 295 -242 392
-344 255 -266 469 -614 593 -964 106 -301 186 -622 197 -796 l6 -89 50 -51
c91 -94 107 -140 19 -56 -28 28 -54 50 -57 50 -3 0 -5 -30 -5 -67 0 -255 -62
-623 -141 -851 -43 -124 -137 -311 -210 -422 -125 -189 -334 -368 -554 -475
-525 -257 -1512 -432 -2230 -396 -310 16 -478 38 -700 92 -341 83 -627 237
-864 464 -53 50 -81 72 -64 50 17 -22 33 -49 35 -60 2 -11 10 -19 17 -17 7 1
41 -24 75 -56 293 -273 657 -426 1186 -497 154 -20 501 -37 625 -30 55 3 145
8 200 11 169 9 370 33 595 71 118 20 229 37 247 37 17 1 29 4 27 7 -3 6 88 28
136 34 8 1 24 4 35 8 11 3 31 8 45 11 14 3 56 14 94 25 48 14 72 17 77 10 4
-7 8 -6 12 4 3 8 20 18 39 22 18 4 35 9 38 10 3 1 18 7 33 13 16 7 32 10 37 7
5 -3 10 -2 12 3 1 4 44 22 93 41 97 36 282 126 349 169 188 121 339 275 455
465 50 83 124 229 140 280 13 38 25 47 34 25 3 -8 6 -6 6 5 1 23 -2 33 -11 30
-4 -2 0 19 8 45 33 106 67 243 83 331 l17 95 129 -3 c407 -7 659 -69 970 -242
206 -114 302 -184 430 -313 268 -271 435 -612 521 -1066 61 -323 38 -668 -76
-1130 -56 -227 -164 -594 -210 -715 -151 -396 -181 -478 -199 -545 -11 -41
-32 -99 -46 -127 -14 -29 -25 -56 -25 -59 0 -16 -202 -416 -246 -489 -71 -117
-163 -244 -296 -411 -30 -38 -68 -89 -85 -114 -39 -57 -344 -370 -361 -370 -6
0 -29 -15 -49 -34 -21 -18 -54 -41 -73 -50 -19 -9 -64 -43 -99 -76 -36 -33
-70 -60 -77 -60 -6 0 -34 -15 -60 -33 -27 -19 -103 -65 -169 -102 -66 -38
-140 -81 -165 -97 -66 -42 -447 -228 -468 -228 -9 0 -23 9 -29 20 -11 17 -8
22 30 43 161 92 233 136 312 191 50 35 122 80 160 101 39 21 117 64 175 95 58
32 134 70 170 85 55 23 134 81 211 155 9 8 36 30 60 49 95 74 292 286 362 389
21 31 31 48 20 37 -10 -12 -26 -24 -35 -28 -10 -3 -32 -29 -49 -57 -17 -27
-35 -47 -40 -44 -5 3 -8 0 -7 -7 2 -7 -7 -18 -20 -24 -12 -7 -30 -21 -38 -31
-9 -11 -13 -14 -11 -9 3 6 -5 10 -17 10 -17 0 -22 -5 -18 -17 2 -10 -3 -20
-12 -24 -14 -5 -14 -9 -4 -23 12 -14 11 -14 -4 -3 -15 12 -22 9 -55 -25 -21
-21 -31 -29 -22 -18 9 11 19 28 22 38 4 9 13 17 22 17 8 0 15 7 15 16 0 12 -7
10 -31 -11 -18 -14 -38 -24 -45 -21 -8 3 -14 1 -14 -4 0 -6 -8 -10 -17 -10
-14 0 -13 3 5 16 12 8 36 28 54 44 17 16 35 27 40 24 5 -3 7 -2 6 3 -1 4 35
44 80 87 84 82 97 104 62 113 -40 11 -24 54 55 153 l75 94 -22 23 c-11 12 -24
20 -28 18 -5 -3 -11 2 -14 11 -3 8 -2 13 3 10 5 -4 7 3 4 14 -3 11 -9 17 -14
14 -12 -7 -34 16 -41 44 -5 18 -4 21 7 12 8 -7 15 -7 19 -1 4 5 0 14 -8 18
-20 11 -21 46 -14 448 3 182 4 285 2 230 -13 -405 -37 -822 -62 -1071 l-7 -71
-140 -115 c-144 -117 -238 -188 -249 -188 -4 0 -47 -27 -96 -60 -317 -213
-892 -472 -1493 -671 -163 -54 -181 -57 -173 -31 2 9 8 105 11 213 l7 196 52
18 c28 10 76 29 106 43 80 37 100 37 100 3 0 -40 30 -194 39 -204 16 -16 208
238 305 403 22 36 45 70 53 76 24 20 5 38 -77 73 -98 42 -229 119 -290 170
l-45 38 3 -152 3 -153 -27 -21 c-23 -18 -40 -21 -121 -21 l-93 0 5 128 c10
234 25 526 31 602 4 54 2 71 -5 60 -8 -12 -11 -12 -11 -1 0 11 -3 11 -15 1 -8
-6 -18 -9 -24 -6 -10 7 -14 -56 -32 -463 -12 -283 -15 -299 -63 -287 -13 3
-45 20 -72 38 -59 40 -107 115 -129 202 -11 47 -14 51 -10 19 8 -69 43 -148
86 -197 22 -25 38 -50 35 -55 -4 -5 0 -12 6 -14 7 -3 -8 -4 -34 -3 -27 2 -48
-1 -48 -5 0 -5 -7 -6 -15 -3 -10 4 -13 0 -10 -15 2 -14 -3 -22 -18 -27 -12 -3
-32 -15 -44 -26 -16 -15 -29 -19 -50 -14 -21 5 -24 4 -13 -4 12 -7 12 -10 1
-10 -8 0 -11 -6 -7 -16 3 -8 2 -12 -4 -9 -6 3 -10 13 -10 21 0 8 -5 14 -11 14
-5 0 -8 -4 -5 -8 3 -5 -8 -9 -25 -9 -31 0 -42 12 -223 221 -38 43 -67 74 -65
68 10 -28 261 -311 317 -358 107 -88 225 -134 342 -134 l49 0 -6 -202 c-4
-156 -9 -206 -19 -214 -8 -6 -14 -16 -14 -21 0 -22 -481 -150 -741 -197 -350
-64 -719 -92 -1069 -82 -231 6 -404 18 -522 37 l-66 10 -7 117 c-4 64 -13 196
-20 292 l-13 175 4 -190 c3 -104 7 -207 9 -227 5 -40 -7 -50 -24 -20 -8 13 -9
9 -5 -18 l6 -35 -21 25 c-24 29 -26 34 -47 160 -9 52 -20 120 -25 150 -5 30
-11 69 -14 85 -2 17 -9 46 -15 65 -6 19 -13 44 -15 55 -3 11 -9 21 -15 23 -5
2 -10 7 -10 12 0 5 -5 21 -12 37 -6 15 -10 32 -9 38 2 5 0 7 -4 3 -12 -12 -56
34 -45 47 7 9 2 11 -20 10 -17 -1 -28 0 -25 3 8 9 -15 41 -28 38 -6 -1 -9 -1
-5 1 4 3 -9 29 -29 59 -20 30 -38 52 -41 49 -3 -3 -13 9 -23 25 -11 17 -26 30
-34 30 -10 0 -13 5 -9 12 5 8 0 9 -14 6 -13 -4 -30 1 -42 10 -16 14 -24 44
-40 168 -56 427 -145 778 -269 1063 -45 104 -49 120 -24 100 15 -12 16 -12 10
4 -3 9 -2 17 3 17 6 0 10 9 10 20 0 11 -5 20 -11 20 -5 0 -8 4 -4 9 6 11 -31
129 -46 147 -8 10 -23 54 -61 177 -6 20 -15 37 -20 37 -4 0 -8 6 -8 13 0 8 -9
24 -20 37 -11 13 -20 27 -20 31 0 10 -22 38 -65 85 -16 18 -59 65 -95 106
-161 181 -343 334 -502 421 -25 14 -64 37 -87 51 -43 28 -56 32 -46 16 9 -14
-8 -12 -25 3 -8 6 -4 0 9 -15 14 -16 21 -28 16 -28 -4 0 0 -10 11 -22 l19 -21
-27 18 c-15 9 -26 21 -23 25 3 5 0 12 -6 16 -8 4 -9 3 -5 -4 13 -21 -4 -13
-96 49 -121 82 -289 149 -371 149 -14 0 -32 7 -40 15 -9 8 -17 10 -19 5 -2 -6
-20 -13 -41 -17 -32 -5 -37 -3 -38 13 0 15 -3 13 -10 -6 -6 -16 -25 -31 -53
-43 -57 -24 -245 -134 -271 -159 -20 -19 -20 -19 7 -9 15 6 44 21 66 34 72 46
182 97 208 97 25 0 26 -1 21 -47 l-6 -48 14 54 c15 59 26 71 68 71 19 0 27 -5
28 -17 0 -13 3 -12 10 6 8 20 14 22 47 17 20 -3 51 -6 68 -6 52 1 157 -38 241
-88 128 -77 427 -308 541 -417 218 -209 373 -427 543 -767 110 -219 192 -442
249 -674 101 -409 178 -1223 147 -1554 -4 -47 -8 -114 -8 -150 -1 -186 -93
-736 -130 -774 -6 -6 -9 -4 -10 5 0 7 -5 3 -11 -11 -10 -24 -11 -24 -26 20
-27 81 -106 184 -190 248 -18 14 -40 38 -48 54 -13 25 -19 28 -68 28 -47 0
-59 -5 -104 -40 -73 -59 -90 -99 -107 -269 -11 -107 27 -358 72 -481 15 -41
73 -122 73 -103 0 4 9 -3 20 -17 18 -23 20 -23 20 -5 0 11 23 -22 50 -74 28
-51 59 -108 71 -127 16 -27 18 -37 9 -54 -6 -11 -15 -18 -20 -15 -5 3 -12 0
-16 -6 -10 -17 -39 23 -83 117 -86 182 -205 245 -337 177 -81 -41 -133 -208
-120 -382 12 -156 86 -420 157 -563 16 -32 29 -65 29 -74 0 -22 -51 -114 -63
-114 -5 0 -16 -8 -23 -17 -12 -17 -13 -17 -14 3 0 33 -54 183 -94 262 -71 140
-153 201 -257 189 -108 -13 -178 -84 -200 -202 -7 -33 -14 -67 -17 -75 -2 -8
-6 -55 -8 -105 -1 -49 -8 -114 -13 -144 -6 -29 -10 -99 -9 -155 l1 -101 7 125
c10 172 50 270 134 321 31 19 121 26 141 11 17 -12 16 -32 -3 -32 -31 0 -42
-22 -42 -81 0 -52 16 -90 50 -119 13 -11 89 -160 125 -243 29 -67 38 -103 39
-147 1 -32 4 -56 9 -53 4 2 8 -22 8 -54 2 -68 3 -79 18 -158 7 -36 9 -95 5
-145 -8 -108 9 -178 69 -283 25 -44 44 -86 43 -95 -8 -51 -129 1 -221 93 -113
113 -221 288 -285 465 -27 72 -29 75 -59 73 -21 -1 -31 3 -31 13 0 17 0 17
-43 -1 -64 -27 -71 -22 -96 57 -33 106 -94 228 -152 304 -50 66 -50 67 -74
208 -45 271 -92 813 -146 1696 -9 133 -17 209 -25 217 -18 18 -24 16 -24 -7 0
-11 -4 -20 -10 -20 -5 0 -10 -15 -10 -32 0 -18 -5 -40 -10 -48 -7 -11 -10 -1
-11 35 l-2 50 -6 -47 c-12 -83 -19 -63 -25 74 -4 73 -11 201 -16 283 -7 131
-8 123 -2 -60 3 -115 5 -340 4 -500 -1 -159 -2 -304 -2 -322 0 -22 -6 -33 -19
-38 -11 -3 -34 -19 -53 -35 -18 -17 -39 -27 -47 -25 -12 5 -12 3 0 -12 11 -13
11 -15 1 -9 -9 5 -15 1 -19 -13 -3 -11 -9 -18 -14 -15 -5 3 -9 0 -9 -5 0 -6
-15 -17 -34 -25 -19 -8 -44 -24 -55 -35 -12 -12 -27 -19 -33 -15 -6 4 -8 3 -5
-3 4 -6 -5 -18 -18 -27 -14 -10 -23 -22 -19 -28 4 -6 3 -8 -3 -5 -6 4 -18 -5
-28 -19 -9 -14 -25 -34 -36 -45 -17 -17 -18 -23 -7 -37 11 -15 11 -16 -4 -4
-17 14 -35 1 -23 -18 4 -6 -1 -7 -11 -3 -14 5 -16 2 -12 -15 5 -19 4 -20 -15
-11 -18 9 -20 9 -10 -1 12 -13 10 -17 -47 -87 -6 -7 -5 -13 3 -17 7 -3 1 -3
-12 0 -19 5 -23 3 -18 -10 4 -9 1 -15 -6 -13 -8 1 -11 -9 -10 -27 1 -17 -2
-35 -6 -40 -12 -15 -17 -68 -8 -84 5 -6 4 -12 -1 -12 -6 0 -9 -18 -8 -39 1
-22 -1 -38 -4 -36 -4 2 -7 -15 -7 -38 -1 -72 -8 -137 -14 -137 -4 0 -9 -9 -12
-20 -3 -11 -1 -20 5 -20 19 0 -18 -27 -47 -34 -51 -13 -110 -53 -137 -93 -13
-21 -35 -54 -47 -73 -13 -20 -45 -50 -72 -68 -45 -29 -48 -34 -39 -58 15 -37
1 -52 -22 -23 l-18 24 10 -28 c17 -48 12 -44 -46 38 -146 207 -301 613 -414
1080 -85 354 -110 555 -117 928 -6 287 2 451 32 737 102 952 303 1658 684
2395 168 325 317 541 485 707 53 52 96 98 96 101 0 28 -88 -53 -194 -178 -88
-103 -108 -108 -133 -27 -24 78 -24 329 1 462 102 553 301 1063 578 1483 151
229 246 345 432 535 113 114 131 139 94 133 -5 0 -8 3 -8 9 0 6 -3 9 -7 9 -20
-3 -33 2 -33 14 0 6 -16 29 -36 50 -27 28 -35 44 -30 60 5 20 11 22 58 22 29
-1 63 -6 74 -13 29 -15 74 -70 74 -88 0 -9 31 9 80 46 117 89 226 154 385 231
163 79 410 169 461 169 l35 0 -8 113 c-21 293 -4 512 51 649 18 45 20 55 8 50
-11 -4 -14 -1 -9 11 3 9 2 17 -4 17 -6 0 -9 20 -8 49 3 47 0 52 -60 123 -106
124 -194 269 -265 434 -30 71 -33 85 -22 106 10 19 10 26 -1 36 -8 8 -13 9
-13 2 0 -23 -19 -8 -30 25 -8 25 -8 40 0 55 12 23 3 51 -10 30 -12 -19 -23 9
-63 160 -62 232 -80 370 -74 555 6 192 33 311 98 435 48 92 135 186 202 219
53 26 140 28 218 5 129 -38 313 -152 461 -287 123 -111 121 -104 28 -174 -121
-91 -306 -252 -400 -349 l-85 -88 110 104 c195 183 419 361 461 366 24 2 69
-37 63 -55 -2 -5 -39 -39 -83 -75 -125 -104 -342 -305 -451 -418 -139 -144
-316 -348 -302 -348 3 0 31 33 63 73 190 234 738 739 798 734 13 -1 50 -33 93
-82 39 -44 95 -106 125 -138 l53 -58 65 61 c433 406 925 633 1620 746 151 25
508 30 665 10 251 -32 521 -96 541 -128 3 -5 11 1 18 14 8 16 20 23 37 22 l26
-1 6 126 c10 219 65 376 168 481 93 93 167 122 298 115 58 -3 88 -11 140 -36z
m5582 -145 c31 -28 22 -73 -20 -101 -80 -54 -220 1 -196 77 8 26 64 53 81 39
7 -6 15 -4 23 5 15 18 84 6 112 -20z m-12525 -109 c4 -8 2 -21 -4 -28 -11 -14
-27 -85 -23 -106 1 -7 -2 -10 -8 -6 -6 3 -11 3 -12 -2 -3 -32 -10 -49 -26 -61
-15 -11 -20 -10 -30 5 -23 30 11 143 56 191 25 26 39 28 47 7z m-1137 -169
c-7 -7 -202 -56 -206 -52 -2 2 33 13 79 25 46 12 88 24 93 26 14 5 39 6 34 1z
m16496 -36 c-19 -8 -18 -9 5 -11 23 -1 40 -3 78 -7 7 -1 10 -7 6 -14 -5 -7 -2
-9 8 -5 10 3 19 -3 27 -19 30 -67 -7 -124 -85 -131 -61 -5 -108 21 -130 74
-27 64 8 124 74 122 30 0 33 -2 17 -9z m-16885 -76 c0 -18 -37 -63 -74 -91
-56 -43 -103 -60 -119 -43 -9 10 -9 14 2 17 7 3 25 18 40 33 54 56 151 110
151 84z m11063 -28 c10 1 14 -2 10 -9 -4 -6 0 -8 10 -4 9 3 17 1 19 -5 3 -9
42 -16 116 -21 52 -4 9 -47 -48 -47 -38 0 -100 25 -100 40 0 6 -4 9 -9 5 -5
-3 -13 0 -18 7 -10 17 -16 57 -6 42 5 -6 16 -10 26 -8z m-6425 -83 c-2 -15
-10 -27 -20 -29 -9 -1 -32 -16 -49 -32 -18 -17 -50 -39 -71 -48 -36 -16 -40
-16 -55 -2 -14 15 -14 19 7 47 28 41 116 91 158 91 30 0 33 -2 30 -27z m10259
-125 c-2 -24 -4 -5 -4 42 0 47 2 66 4 43 2 -24 2 -62 0 -85z m-13307 -68 c26
-26 25 -45 -2 -100 -38 -74 -116 -111 -163 -77 -30 23 -15 87 31 137 58 63 99
75 134 40z m598 -102 c7 -7 12 -24 12 -39 0 -15 4 -29 10 -31 5 -1 15 -29 20
-60 12 -63 1 -102 -25 -92 -26 10 -57 91 -58 152 -2 75 12 99 41 70z m-4795
-167 c-24 -22 -164 -111 -175 -111 -40 0 66 91 144 124 40 17 56 10 31 -13z
m13249 -22 c12 -7 18 -7 14 -1 -4 6 2 8 15 5 11 -3 23 -12 26 -20 4 -11 8 -10
18 4 13 17 14 17 32 0 11 -9 25 -17 32 -17 7 0 10 -4 7 -9 -4 -5 5 -8 19 -6
31 3 35 -29 6 -45 -60 -32 -201 25 -201 82 0 21 4 22 32 7z m3871 -100 c78
-61 40 -219 -52 -219 -29 0 -79 39 -63 49 11 7 12 41 1 41 -4 0 -6 8 -4 18 1
9 -1 22 -5 27 -12 15 0 61 21 84 25 27 69 27 102 0z m-1089 -83 c-14 -42 -28
-75 -30 -73 -2 2 8 38 22 81 14 42 28 75 30 73 2 -2 -8 -38 -22 -81z m-244
-86 c25 -25 25 -55 0 -123 -31 -84 -81 -116 -119 -78 -49 49 -9 181 64 211 29
13 33 12 55 -10z m1003 -3 c36 -2 50 -43 22 -63 -44 -32 -156 -24 -197 13 -17
15 -24 44 -14 54 4 3 86 2 189 -4z m-396 -66 c63 -29 79 -75 46 -132 -36 -61
-145 -67 -195 -10 -33 37 -37 94 -10 128 29 36 95 42 159 14z m-14948 -55 c12
-13 24 -30 25 -37 1 -8 8 -34 15 -58 15 -54 8 -86 -23 -107 -22 -14 -27 -14
-54 0 -35 18 -72 87 -72 135 0 17 7 45 15 61 20 38 62 41 94 6z m709 -13 c9
-3 20 -7 25 -8 4 -2 8 -3 10 -5 1 -1 10 -3 20 -5 31 -6 107 -40 107 -47 0 -20
-110 6 -162 38 -59 38 -60 50 0 27z m11242 3 c-38 -14 -209 -33 -199 -22 4 4
28 9 54 13 26 3 59 9 74 13 14 5 44 8 66 8 l40 1 -35 -13z m1280 -101 c38 -45
-118 -141 -186 -114 -26 9 -33 39 -10 39 8 0 28 11 45 25 16 14 39 28 50 30
11 2 32 10 48 19 35 19 38 19 53 1z m-11431 -34 c39 -39 35 -142 -9 -189 -23
-24 -81 -33 -61 -9 6 8 8 16 6 19 -14 13 -14 88 -1 131 10 34 11 47 3 47 -16
0 14 20 31 20 6 0 20 -8 31 -19z m13767 -67 c35 -17 64 -58 64 -92 0 -25 -36
-62 -63 -63 -12 -1 -34 -2 -49 -3 -19 -1 -28 3 -29 14 0 9 -3 10 -5 3 -7 -17
-60 4 -79 30 -58 82 57 160 161 111z m-13624 -136 c-6 -44 -16 -85 -22 -92
-10 -8 -11 10 -6 84 5 82 9 118 16 140 1 3 6 -8 12 -23 7 -20 7 -54 0 -109z
m448 -23 c13 -16 12 -19 -28 -85 -64 -108 -92 -128 -126 -94 -27 26 -20 86 14
133 17 23 41 46 53 51 34 14 73 12 87 -5z m9435 -98 c10 -38 -4 -54 -40 -46
-16 4 -24 7 -17 8 7 0 11 5 7 10 -3 6 3 8 13 6 18 -3 19 0 11 33 -5 20 -9 41
-9 47 0 16 28 -30 35 -58z m-836 7 c46 -49 71 -98 71 -139 0 -61 -59 -6 -121
112 -20 39 -21 73 -1 73 5 0 28 -21 51 -46z m2511 32 c0 -17 -80 -52 -141 -60
-53 -8 -109 8 -91 26 37 37 232 66 232 34z m2518 -49 c5 -83 -52 -189 -92
-174 -19 8 -22 67 -3 68 9 0 9 2 -1 6 -8 3 -10 9 -4 16 5 7 12 27 16 45 8 44
44 94 65 90 12 -2 17 -16 19 -51z m-11320 21 c18 -18 15 -81 -7 -131 -20 -46
-53 -77 -82 -77 -19 0 -18 24 2 105 25 97 56 134 87 103z m6605 -36 c57 -39
84 -101 55 -130 -14 -14 -48 -16 -48 -3 0 5 -15 15 -32 22 -18 7 -45 26 -60
42 -16 15 -28 25 -28 22 0 -4 -7 0 -15 9 -20 20 -19 32 6 57 25 25 66 19 122
-19z m192 -104 c-34 -68 -72 -118 -90 -118 -11 0 -12 6 -3 33 15 42 64 126 91
155 22 23 22 23 25 3 2 -11 -9 -44 -23 -73z m275 62 c0 -5 5 -10 11 -10 5 0 7
4 4 10 -3 6 1 7 9 4 20 -8 21 -20 1 -22 -8 -1 -22 -3 -30 -4 -8 -1 -13 -3 -11
-5 2 -3 -4 -13 -15 -24 -20 -20 -49 -26 -49 -9 0 6 8 10 17 8 14 -2 18 4 17
24 -1 15 2 25 7 23 4 -3 10 -1 14 5 8 13 25 13 25 0z m-12800 -115 c98 -51
-19 -157 -143 -129 -79 17 -77 101 3 133 38 15 107 13 140 -4z m5316 -199 c-3
-11 -6 -25 -6 -29 0 -5 -4 -6 -9 -3 -5 3 -21 -6 -35 -19 -15 -14 -32 -25 -37
-25 -6 0 -7 -4 -4 -10 3 -5 -6 -12 -20 -16 -14 -3 -25 -10 -25 -15 0 -19 -59
-9 -70 12 -32 58 107 163 183 137 23 -8 27 -15 23 -32z m-3157 1 c12 -30 20
-76 28 -148 12 -116 -37 -65 -58 60 -14 86 7 148 30 88z m15553 -14 c39 -35
10 -124 -54 -163 -48 -30 -109 -24 -126 12 -19 40 5 88 65 132 53 39 87 45
115 19z m-3303 -220 c-42 -75 -90 -143 -101 -143 -27 0 13 95 68 158 54 64 73
55 33 -15z m-11575 -164 c-8 -13 16 -60 27 -53 5 3 6 -2 3 -10 -3 -9 -2 -16 2
-16 5 0 8 -19 7 -42 0 -24 4 -49 10 -57 9 -10 7 -16 -8 -27 -51 -37 -131 8
-144 81 -9 51 3 100 31 120 26 17 83 21 72 4z m10514 -334 c67 -14 120 -52
106 -77 -5 -10 -4 -11 7 0 30 27 41 2 12 -30 -43 -47 -175 5 -197 79 -9 29 1
45 22 39 10 -2 32 -7 50 -11z m3252 -160 c0 -9 -81 -46 -90 -40 -5 3 -12 -1
-17 -8 -7 -11 -82 -47 -98 -47 -17 0 0 29 27 45 66 39 178 71 178 50z m-12165
-54 c-13 -11 -157 -41 -199 -41 -25 1 -28 2 -14 11 39 22 234 50 213 30z
m9003 -21 c13 -13 19 -26 15 -37 -4 -11 -3 -14 5 -9 7 4 13 2 13 -3 3 -21 4
-26 12 -38 12 -20 -10 -97 -35 -117 -17 -14 -33 -17 -65 -12 -34 4 -42 2 -46
-12 -4 -13 -5 -11 -6 5 0 13 -10 37 -21 55 -34 56 -20 150 27 177 29 17 78 12
101 -9z m-94 -266 c22 -58 -37 -224 -80 -224 -31 0 -4 142 39 207 25 37 32 40
41 17z m-9044 -23 c0 -11 -4 -22 -9 -25 -18 -12 -18 -55 0 -72 24 -21 24 -34
2 -28 -11 3 -31 -8 -53 -30 -19 -20 -38 -36 -42 -36 -5 0 -8 17 -8 38 0 31 -5
41 -27 54 -16 8 -38 14 -51 12 -18 -3 -23 0 -20 13 3 15 14 18 66 18 59 0 63
2 92 38 35 41 50 47 50 18z m9794 -45 c64 -100 87 -156 64 -156 -35 0 -118
132 -118 188 0 36 17 26 54 -32z m-10338 -23 c-8 -47 -73 -183 -88 -183 -16 0
-3 51 38 140 40 86 60 104 50 43z m10761 -153 c-31 -44 -159 -132 -172 -118
-2 2 21 24 51 48 31 25 62 51 69 58 8 6 18 12 24 12 6 0 11 5 11 10 0 6 7 10
16 10 13 0 13 -2 1 -20z m-9582 -104 c18 -8 38 -23 44 -35 10 -17 7 -22 -21
-34 -63 -28 -74 -31 -135 -31 l-63 -1 0 31 c0 66 94 104 175 70z m-5323 -57
c26 -19 68 -78 68 -95 0 -5 -4 -15 -9 -23 -7 -11 -19 -8 -67 14 -33 15 -68 38
-79 49 -11 12 -28 25 -38 29 -23 9 -21 33 4 50 24 18 77 7 121 -24z m15712 10
c14 -11 26 -30 26 -42 0 -26 -41 -58 -48 -38 -3 8 -12 5 -27 -9 -15 -14 -25
-18 -30 -11 -3 6 -13 11 -21 11 -8 0 -13 -4 -10 -9 3 -4 -5 -7 -17 -6 -12 1
-30 3 -39 4 -28 2 -52 45 -38 70 27 52 153 70 204 30z m-886 -11 c38 -38 -11
-109 -94 -134 -77 -23 -140 8 -114 56 14 25 60 61 71 54 5 -3 9 -1 9 5 0 24
107 40 128 19z m-235 -37 c8 -8 -207 -8 -223 -1 -3 2 11 6 30 11 43 9 181 2
193 -10z m-263 -556 c25 -30 -21 -99 -103 -153 -32 -21 -41 -23 -62 -14 -35
16 -32 51 8 103 51 67 128 99 157 64z m-9857 -10 c4 -8 -1 -38 -9 -67 -8 -29
-17 -62 -20 -74 -10 -38 -47 -76 -68 -68 -15 6 -17 14 -12 42 3 20 12 40 20
44 26 15 46 39 40 49 -6 10 27 88 37 89 4 0 9 -7 12 -15z m-1291 -175 l29 -45
-41 45 c-23 25 -56 65 -72 90 l-29 45 41 -45 c23 -25 56 -65 72 -90z m15323
75 c-41 -19 -171 -48 -187 -42 -7 2 1 8 17 12 17 4 57 15 90 26 33 10 71 18
85 18 24 -1 24 -1 -5 -14z m-18796 -31 c35 -44 25 -127 -20 -175 -39 -42 -73
-37 -76 11 -5 75 -3 112 8 131 6 11 8 27 5 34 -12 33 57 32 83 -1z m15501
-265 c26 -6 18 -7 -30 -3 -36 3 -81 9 -100 14 -26 6 -18 7 30 3 36 -3 81 -9
100 -14z m67 -15 c-3 -3 -12 -4 -19 -1 -8 3 -5 6 6 6 11 1 17 -2 13 -5z
m-12668 -39 c20 -19 5 -50 -32 -67 -87 -42 -126 -52 -160 -39 -41 16 -41 40
-2 77 53 50 156 65 194 29z m11592 8 c50 -30 72 -103 47 -157 -16 -36 -45 -43
-72 -17 -12 12 -26 21 -30 21 -20 0 -51 49 -47 73 0 4 -4 7 -10 7 -6 0 -9 9
-6 20 3 11 1 18 -3 15 -21 -13 -21 20 0 37 28 23 83 23 121 1z m-11475 -152
c29 -11 63 -26 76 -35 l22 -16 -24 0 c-62 1 -210 52 -210 73 0 13 66 2 136
-22z m11114 -28 c86 -56 238 -216 313 -329 118 -177 198 -376 282 -699 43
-164 136 -583 150 -675 4 -25 20 -117 35 -206 26 -143 87 -563 106 -717 3 -31
11 -60 16 -63 6 -4 7 -9 1 -13 -6 -4 -5 -54 3 -136 26 -261 47 -646 48 -875 1
-279 -11 -617 -24 -639 -7 -12 -9 -9 -9 14 0 17 -2 46 -5 65 -3 19 -8 80 -12
135 -8 125 -26 229 -39 227 -17 -2 -41 -136 -49 -281 -1 -14 -4 -30 -7 -36 -3
-5 -7 -28 -8 -50 -2 -28 -12 -48 -32 -69 -16 -16 -29 -24 -29 -18 0 7 -7 6
-20 -5 -10 -9 -29 -18 -42 -20 -17 -2 -19 -1 -8 6 8 5 18 7 22 5 4 -3 8 0 8 5
0 10 -21 16 -42 12 -11 -1 -10 7 3 30 9 18 8 19 -10 8 -15 -10 -23 -10 -34 -1
-11 9 -14 8 -15 -3 -1 -8 -3 -21 -4 -28 -1 -7 -11 -13 -22 -12 -12 1 -24 -5
-27 -13 -4 -10 -23 -16 -59 -18 -30 -1 -48 1 -42 5 10 6 10 11 -2 20 -8 7 -20
10 -27 6 -8 -6 -8 -2 0 13 7 14 8 23 1 27 -5 3 -10 -1 -10 -9 0 -8 -4 -18 -10
-21 -5 -3 -7 0 -4 8 4 11 -1 13 -21 9 -14 -2 -25 -1 -24 4 4 24 -2 44 -13 41
-7 -1 -13 8 -14 21 -1 13 -6 28 -13 35 -6 6 -11 28 -11 50 0 21 -4 46 -10 56
-5 10 -12 47 -14 82 -3 35 -10 96 -16 134 -7 39 -13 96 -15 128 -2 31 -6 74
-9 95 -4 20 -8 53 -10 72 -2 19 -7 64 -11 100 -4 36 -8 81 -9 100 -2 31 -7 62
-32 205 -3 22 -7 48 -7 58 -1 9 -5 17 -9 17 -4 0 -7 3 -7 8 1 4 1 21 0 37 l-1
30 -20 -32 c-19 -31 -38 -47 -25 -20 4 6 -3 1 -14 -12 -12 -13 -22 -22 -22
-20 -1 2 -3 13 -4 24 -6 49 -16 99 -20 104 -3 2 -13 -3 -23 -12 -30 -27 -70
-21 -107 16 -55 55 -69 141 -29 181 31 32 90 9 125 -49 11 -16 19 -25 20 -20
4 53 4 76 -1 112 -4 27 -3 44 4 47 8 3 8 7 0 13 -6 4 -10 22 -9 39 2 17 -1 37
-5 45 -5 7 -4 21 1 31 5 10 6 18 2 18 -5 0 -8 18 -8 40 0 22 3 40 6 40 3 0 4
14 1 30 -2 17 -7 30 -11 30 -5 0 -6 56 -1 70 3 6 3 4 -5 61 -3 24 -8 62 -10
84 -3 22 -14 76 -24 120 -11 44 -17 84 -14 89 4 5 1 6 -5 2 -8 -5 -12 0 -12
13 0 11 -4 22 -10 26 -5 3 -7 12 -3 21 3 8 -3 22 -13 30 -11 9 -12 13 -4 9 13
-6 13 -5 0 7 -26 23 -61 78 -58 91 1 6 -6 24 -16 40 -17 25 -18 42 -12 170 20
452 20 442 2 460 -10 9 -15 17 -11 17 3 0 3 5 0 11 -5 6 -12 4 -20 -8 -9 -11
0 45 21 147 57 266 75 407 80 620 4 140 1 225 -9 300 -8 58 -13 108 -11 111 2
3 18 6 36 7 22 1 51 -11 88 -35z m1034 -61 c3 -9 22 -26 41 -36 19 -10 32 -23
29 -27 -3 -5 0 -9 6 -9 6 0 16 -13 21 -30 6 -16 15 -30 20 -30 16 0 9 -21 -16
-45 -47 -48 -127 -20 -166 56 -18 37 -20 47 -10 81 8 24 21 43 34 48 32 13 35
12 41 -8z m-14114 -120 c0 -42 -111 -172 -147 -172 -18 0 -16 35 3 54 8 9 13
16 10 16 -8 0 21 36 65 82 39 41 69 49 69 20z m2109 -246 c-17 -54 -32 -96
-35 -93 -3 2 9 48 26 102 18 53 33 95 36 93 2 -3 -10 -48 -27 -102z m13093 -9
c-28 -29 -88 -65 -78 -46 4 8 1 6 -8 -5 -8 -10 -19 -15 -25 -11 -6 3 -11 1
-11 -4 0 -6 -12 -11 -27 -11 -27 0 -27 0 -7 14 12 8 27 16 35 18 8 2 28 13 46
26 17 12 37 22 43 22 6 0 18 7 27 15 24 25 29 8 5 -18z m-126 -318 c37 -22 53
-62 37 -88 -8 -12 -27 -16 -77 -17 -37 0 -69 4 -72 8 -3 5 -13 6 -22 4 -53
-17 -75 74 -25 103 32 19 122 13 159 -10z m-14235 -339 c76 -21 102 -80 53
-119 -51 -40 -164 -21 -200 34 -44 68 37 115 147 85z m2584 -54 c59 -41 88
-197 39 -204 -15 -2 -29 7 -44 27 -12 17 -18 31 -13 32 4 1 -3 4 -17 8 -36 11
-50 3 -50 -29 0 -15 -13 -46 -30 -68 -16 -23 -30 -46 -30 -51 0 -17 -20 -23
-35 -11 -30 25 -9 118 38 168 12 13 39 31 60 39 21 9 34 19 29 22 -17 11 -24
51 -12 66 16 19 40 19 65 1z m13296 -41 c14 -27 28 -44 38 -43 31 6 40 -83 11
-112 -42 -42 -122 -14 -154 54 -35 73 -8 146 54 146 24 0 32 -7 51 -45z
m-2128 -28 c24 -15 52 -41 63 -62 19 -36 19 -37 -1 -51 -32 -23 -82 -8 -157
49 -102 77 -20 131 95 64z m1113 -84 c42 -19 104 -82 104 -104 0 -31 -17 -30
-81 3 -75 40 -119 77 -119 99 0 32 32 32 96 2z m-14663 -496 c-22 -23 -53 -56
-69 -73 -54 -57 -92 -51 -55 9 40 65 135 136 156 116 6 -6 -6 -25 -32 -52z
m13367 0 c0 -86 -49 -197 -87 -197 -12 0 -13 9 -8 48 4 26 7 55 7 65 0 9 2 17
6 17 4 0 8 17 10 37 3 41 26 73 54 73 15 0 18 -8 18 -43z m-14130 -32 c0 -7 9
-24 20 -37 10 -14 16 -28 13 -32 -3 -3 -2 -6 4 -6 5 0 16 -19 23 -42 8 -24 19
-46 24 -50 6 -4 3 -10 -7 -14 -9 -3 -24 0 -33 7 -25 21 -64 105 -71 154 -5 39
-4 45 11 39 9 -3 16 -12 16 -19z m2287 -1206 c71 -27 101 -93 62 -135 -23 -24
-59 -33 -59 -14 0 6 -4 10 -10 10 -5 0 -7 -7 -4 -15 8 -21 -13 -19 -25 3 -6 9
-11 12 -11 6 0 -6 -13 -9 -30 -6 -16 2 -28 9 -27 15 1 6 -7 11 -18 12 -24 0
-41 42 -31 78 12 48 88 71 153 46z m7103 -530 c0 6 34 -12 75 -41 41 -29 75
-55 75 -59 0 -8 -51 1 -65 11 -24 18 -78 29 -94 20 -15 -8 -18 -3 -20 37 -2
41 0 45 13 33 11 -8 16 -9 16 -1z m1494 -252 c-21 -12 -37 12 -21 31 9 12 13
11 24 -4 11 -15 11 -20 -3 -27z m2854 -612 c-3 -3 -9 2 -12 12 -6 14 -5 15 5
6 7 -7 10 -15 7 -18z m-7037 -425 l30 0 -22 -29 c-14 -19 -27 -27 -37 -23 -9
3 -13 1 -9 -5 4 -6 4 -19 0 -30 -6 -15 -8 -13 -13 12 -3 17 -1 34 5 38 7 6 6
10 -2 14 -19 7 -16 36 3 29 9 -3 29 -6 45 -6z m3426 -235 c21 -9 46 -23 57
-33 43 -39 94 -197 51 -162 -12 10 -15 10 -15 -4 0 -10 -16 0 -47 30 -26 24
-58 47 -72 51 -14 3 -36 12 -50 19 -14 8 -51 19 -81 25 -30 7 -62 18 -70 24
-8 7 -24 15 -35 20 -18 6 -15 10 20 26 52 24 189 26 242 4z m-4468 -332 c21
-17 21 -19 5 -52 -24 -48 -10 -98 36 -129 68 -46 114 -158 104 -256 -5 -62 -5
-63 55 -261 12 -38 26 -105 32 -149 6 -47 22 -105 40 -145 17 -36 31 -82 32
-101 2 -31 -1 -35 -26 -38 -60 -7 -151 71 -244 210 -58 89 -158 282 -173 338
-7 25 -28 83 -46 130 -44 115 -51 156 -30 179 15 16 15 27 5 88 -10 63 -10 73
9 109 21 40 56 77 82 87 33 12 98 6 119 -10z m4447 -116 c15 -40 -64 -141
-184 -239 -42 -34 -79 -65 -82 -68 -3 -3 -32 -29 -65 -57 -80 -68 -162 -118
-205 -126 l-35 -7 25 20 c14 11 63 45 110 77 113 76 237 198 308 301 31 47 61
91 67 98 13 18 54 18 61 1z m-4224 -189 c52 -108 105 -252 128 -348 29 -125
24 -128 -19 -10 -42 116 -83 246 -81 256 1 4 -2 10 -7 13 -11 8 -73 135 -73
150 0 28 20 5 52 -61z m1318 35 c-44 -20 -120 -29 -120 -15 0 13 64 30 115 30
l40 0 -35 -15z m-341 -172 c11 -7 11 -15 0 -47 -16 -50 -14 -79 11 -119 14
-22 16 -35 9 -42 -19 -19 29 -141 103 -260 11 -18 17 -33 13 -33 -3 0 0 -10 6
-22 11 -21 11 -22 -4 -9 -12 9 -17 10 -17 2 0 -20 -85 45 -140 106 -124 139
-144 295 -53 403 25 30 47 37 72 21z m210 -268 c20 -15 42 -33 48 -39 7 -7 18
-14 25 -16 6 -2 8 -9 5 -15 -19 -30 -207 67 -207 106 0 17 94 -10 129 -36z
m6572 -78 c1 -11 5 -4 8 15 7 35 7 34 29 -35 81 -264 94 -772 23 -945 l-10
-25 -1 30 c-2 29 -2 28 -17 -13 -8 -24 -16 -42 -17 -40 -2 2 1 50 6 108 5 58
7 238 5 400 -4 262 -8 308 -30 415 -23 114 -25 153 -6 124 5 -8 9 -23 10 -34z
m-5237 -114 c5 -1 7 -3 4 -6 -8 -8 -234 -19 -227 -11 6 7 174 24 199 20 8 -1
19 -3 24 -3z m-3094 -59 c0 -4 17 -6 38 -4 21 2 45 -3 56 -11 17 -12 17 -14 1
-30 -45 -45 -34 -112 33 -200 38 -50 137 -253 146 -300 7 -38 27 -119 48 -195
11 -40 21 -83 23 -95 8 -55 35 -179 42 -190 4 -6 8 -57 8 -112 0 -81 5 -111
24 -158 19 -46 27 -56 41 -52 30 10 70 -5 70 -26 0 -10 -14 -34 -31 -54 -25
-28 -38 -35 -67 -35 -102 0 -204 147 -380 545 -136 306 -191 475 -191 585 -1
182 5 239 27 263 14 15 20 30 16 40 -4 12 1 20 17 26 29 12 79 14 79 3z m296
-337 c26 -49 40 -84 31 -76 -9 7 -17 17 -17 22 0 5 -18 38 -40 74 -22 36 -40
71 -40 77 0 20 14 -2 66 -97z m7508 -325 l8 25 8 -30 c21 -83 2 -315 -45 -535
-48 -223 -142 -480 -177 -480 -7 0 -22 -10 -35 -22 l-24 -22 16 38 c9 22 23
49 30 60 39 59 108 298 140 481 8 50 22 181 30 293 14 201 24 257 35 197 l6
-30 8 25z m-9844 -53 c0 -7 -9 -18 -20 -25 -12 -7 -18 -18 -13 -25 5 -9 3 -9
-9 0 -8 7 -18 10 -21 6 -4 -3 -14 0 -22 7 -14 12 -13 15 12 32 15 10 34 16 41
13 6 -2 12 0 12 6 0 6 5 7 10 4 6 -3 10 -12 10 -18z m30 13 c0 -5 -4 -10 -10
-10 -5 0 -10 5 -10 10 0 6 5 10 10 10 6 0 10 -4 10 -10z m8056 -60 c-3 -11 -9
-30 -12 -41 -4 -15 -3 -19 6 -14 17 11 5 -26 -37 -109 -62 -126 -153 -231
-211 -242 -48 -10 -41 13 23 76 60 59 183 239 210 308 18 43 31 57 21 22z
m2154 -20 c0 -33 -4 -42 -25 -52 -26 -12 -55 2 -55 27 0 21 41 65 61 65 16 0
19 -7 19 -40z m-8556 -47 c-11 32 6 18 36 -30 30 -46 39 -80 20 -68 -7 4 -7
-3 0 -20 6 -15 10 -34 9 -43 0 -15 -2 -14 -12 2 -7 11 -26 36 -43 55 -18 20
-37 56 -44 81 -6 25 -20 59 -31 75 -12 17 0 8 25 -20 25 -27 43 -42 40 -32z
m-1592 -202 c17 -6 35 -27 48 -53 l22 -43 -26 30 c-32 38 -33 27 -2 -33 37
-73 56 -123 45 -116 -6 3 -26 39 -45 78 -34 73 -66 102 -99 90 -28 -11 -36
-84 -13 -128 6 -11 27 -39 45 -61 50 -57 118 -207 137 -299 19 -93 20 -161 4
-272 -13 -93 -7 -118 49 -191 18 -24 33 -48 33 -54 0 -5 4 -7 10 -4 14 8 1
-24 -22 -57 -46 -67 -145 -11 -243 137 -114 170 -173 346 -182 535 -6 141 10
219 68 331 61 118 96 140 171 110z m1709 -56 c16 -35 29 -70 29 -77 -1 -11
-70 127 -70 138 0 18 16 -7 41 -61z m7060 -135 c-15 -140 -51 -274 -107 -390
-54 -114 -90 -168 -115 -175 -11 -3 -28 -8 -40 -11 -19 -5 -18 -1 11 48 64
108 159 315 180 393 12 44 24 125 27 180 3 55 10 107 15 115 9 15 4 -167 -7
-240 l-5 -35 10 30 c6 17 13 73 16 125 3 52 8 106 12 120 12 48 14 -50 3 -160z
m-8018 -36 c16 -10 16 -14 4 -26 -42 -42 -25 -131 35 -180 83 -68 114 -107
158 -191 24 -48 47 -90 50 -93 3 -3 5 -9 6 -12 0 -4 8 -24 17 -45 9 -21 16
-41 16 -45 -1 -4 0 -9 1 -12 2 -3 4 -34 5 -70 1 -36 11 -92 22 -125 11 -33 24
-91 28 -129 6 -56 17 -87 56 -161 46 -85 48 -92 33 -113 -23 -33 -87 -30 -145
6 -119 76 -309 369 -383 593 -77 231 -71 507 13 590 28 28 56 32 84 13z"/>
<path d="M14960 15215 c-36 -16 -73 -61 -85 -105 -4 -18 1 -13 18 15 39 62 77
80 172 79 113 0 209 -43 350 -155 36 -28 35 -27 -5 10 -64 58 -145 111 -215
140 -74 31 -183 38 -235 16z"/>
<path d="M15465 14990 c10 -11 20 -20 23 -20 3 0 -3 9 -13 20 -10 11 -20 20
-23 20 -3 0 3 -9 13 -20z"/>
<path d="M15631 14584 c0 -11 3 -14 6 -6 3 7 2 16 -1 19 -3 4 -6 -2 -5 -13z"/>
<path d="M11633 14529 c15 -20 27 -41 27 -47 0 -6 9 -16 21 -22 20 -11 20 -10
5 17 -8 15 -29 42 -47 58 l-32 30 26 -36z"/>
<path d="M10624 14408 l-19 -23 23 19 c21 18 27 26 19 26 -2 0 -12 -10 -23
-22z"/>
<path d="M11720 14387 c0 -5 11 -53 25 -108 37 -144 48 -287 35 -432 -26 -283
-124 -522 -274 -673 -182 -182 -385 -197 -662 -50 -45 24 -85 41 -88 38 -13
-12 -6 -34 9 -28 9 3 40 -12 75 -39 33 -24 97 -58 143 -76 75 -30 92 -33 192
-34 105 0 113 2 178 33 80 40 191 140 250 226 108 160 183 397 202 641 8 109
-10 285 -41 391 -23 80 -43 131 -44 111z"/>
<path d="M15506 14192 c-3 -5 3 -21 14 -33 19 -22 20 -22 18 -4 -2 13 2 20 14
19 10 -1 14 4 11 12 -6 17 -19 18 -29 3 -5 -8 -9 -8 -14 1 -5 8 -10 8 -14 2z"/>
<path d="M10449 14013 c-13 -16 -12 -17 4 -4 9 7 17 15 17 17 0 8 -8 3 -21
-13z"/>
<path d="M14885 13803 c-33 -2 -134 -12 -225 -23 -209 -25 -385 -43 -725 -75
-148 -14 -288 -27 -310 -30 -22 -3 -256 -25 -520 -50 -523 -48 -614 -60 -780
-104 -276 -73 -442 -186 -570 -386 -174 -272 -147 -660 60 -853 73 -68 206
-140 310 -166 182 -46 472 -58 780 -31 200 17 480 48 632 71 59 9 126 18 148
20 103 12 445 69 574 95 506 105 781 289 918 612 87 207 113 490 62 672 -31
110 -99 189 -193 224 -66 24 -89 27 -161 24z m119 -44 c128 -38 183 -94 223
-224 14 -48 18 -91 17 -220 -1 -139 -4 -173 -27 -259 -81 -304 -276 -518 -582
-637 -249 -97 -627 -171 -1295 -254 -113 -14 -227 -28 -254 -31 -31 -4 -46 -3
-43 4 4 5 39 12 79 16 210 20 375 57 953 210 391 103 509 146 635 231 147 99
276 291 335 499 44 155 31 336 -34 464 -33 65 -117 181 -138 189 -30 12 -8 29
41 32 10 0 51 -9 90 -20z m-551 -479 c158 -59 234 -257 159 -415 -55 -115
-155 -179 -282 -179 -195 0 -310 102 -318 286 -5 103 15 162 80 233 41 45 61
58 111 74 83 26 181 27 250 1z m-1567 -220 c51 -25 119 -92 147 -145 29 -56
35 -176 13 -243 -22 -66 -92 -144 -159 -176 -75 -36 -141 -42 -234 -21 -72 17
-82 22 -134 75 -126 127 -126 323 1 447 40 39 91 63 185 87 38 9 139 -4 181
-24z m1014 -523 c0 -46 -23 -26 -24 21 -1 36 1 40 12 25 6 -9 12 -30 12 -46z
m-42 -40 c14 4 14 3 2 -5 -16 -12 -30 -7 -29 11 0 9 2 9 5 0 3 -7 13 -9 22 -6z
m-37 -25 c-9 -3 -8 -7 4 -16 15 -10 14 -12 -3 -12 -12 0 -18 6 -17 16 2 8 4
19 4 23 1 5 6 5 13 1 9 -6 9 -9 -1 -12z"/>
<path d="M13826 11742 c-22 -27 -24 -32 -7 -17 20 17 47 55 39 55 -2 0 -16
-17 -32 -38z"/>
<path d="M13400 11691 c0 -22 122 -84 205 -105 44 -11 30 -2 -89 59 -115 59
-116 60 -116 46z"/>
<path d="M13779 11683 c-13 -16 -12 -17 4 -4 9 7 17 15 17 17 0 8 -8 3 -21
-13z"/>
<path d="M15801 11604 c0 -11 3 -14 6 -6 3 7 2 16 -1 19 -3 4 -6 -2 -5 -13z"/>
<path d="M15801 11504 c0 -11 3 -14 6 -6 3 7 2 16 -1 19 -3 4 -6 -2 -5 -13z"/>
<path d="M10940 11460 c12 -16 24 -30 26 -30 3 0 -4 14 -16 30 -12 17 -24 30
-26 30 -3 0 4 -13 16 -30z"/>
<path d="M10985 11400 c10 -11 20 -20 23 -20 3 0 -3 9 -13 20 -10 11 -20 20
-23 20 -3 0 3 -9 13 -20z"/>
<path d="M11030 11174 c0 -8 5 -12 10 -9 6 3 10 10 10 16 0 5 -4 9 -10 9 -5 0
-10 -7 -10 -16z"/>
<path d="M16130 9654 c-271 -102 -379 -141 -735 -260 -877 -295 -1383 -424
-1963 -500 -152 -20 -212 -32 -212 -41 0 -16 -10 -17 177 7 174 23 371 56 563
94 188 38 211 40 216 18 3 -9 31 -31 62 -47 l57 -30 3 -130 c3 -151 -4 -172
-57 -181 -174 -28 -350 -134 -445 -268 -52 -72 -102 -174 -110 -226 -5 -27 -2
-24 13 17 91 247 332 443 544 443 l49 0 -8 -166 c-8 -195 -10 -198 -108 -221
-84 -19 -194 -74 -239 -119 -41 -41 -82 -119 -91 -174 -5 -28 -2 -25 15 18 27
69 113 160 187 200 57 31 163 62 211 62 l24 0 -7 -145 c-5 -98 -4 -145 3 -145
5 0 13 17 16 38 10 61 14 69 12 24 -2 -30 1 -41 10 -38 6 3 13 1 15 -4 2 -5 4
43 5 107 2 64 5 125 9 135 6 21 62 25 97 7 20 -11 21 -10 6 6 -9 9 -34 22 -55
30 -21 7 -39 19 -39 27 0 7 4 91 9 186 8 168 9 172 30 172 29 0 127 -29 144
-42 9 -8 11 -7 6 5 -7 20 -57 43 -124 59 l-53 12 6 172 c8 194 12 181 -78 227
-49 25 -50 25 -24 35 14 6 86 27 160 47 242 66 471 135 684 205 525 173 707
234 950 320 143 51 271 94 285 96 20 2 41 -10 88 -52 l61 -55 4 -97 3 -97 2
113 c1 67 -2 112 -8 112 -16 0 -80 61 -80 77 0 23 -31 42 -65 42 -16 -1 -118
-34 -225 -75z m-1813 -1581 c-3 -10 -5 -4 -5 12 0 17 2 24 5 18 2 -7 2 -21 0
-30z"/>
<path d="M9361 9564 c0 -11 3 -14 6 -6 3 7 2 16 -1 19 -3 4 -6 -2 -5 -13z"/>
<path d="M16312 9555 c-162 -75 -933 -370 -1207 -461 -204 -67 -241 -86 -60
-30 162 51 252 83 535 190 542 206 790 306 790 320 0 8 1 8 -58 -19z"/>
<path d="M9251 9494 c0 -11 3 -14 6 -6 3 7 2 16 -1 19 -3 4 -6 -2 -5 -13z"/>
<path d="M9201 9234 c0 -11 3 -14 6 -6 3 7 2 16 -1 19 -3 4 -6 -2 -5 -13z"/>
<path d="M16494 8935 c0 -170 2 -242 3 -158 2 83 2 223 0 310 -1 87 -3 19 -3
-152z"/>
<path d="M9166 9068 c-56 -292 -96 -644 -116 -1003 -12 -210 -13 -1191 -1
-1380 4 -67 6 140 5 465 -2 486 -1 540 6 317 5 -148 11 -271 14 -274 3 -4 6
121 6 277 0 156 2 281 5 278 3 -3 6 -88 6 -189 1 -101 4 -218 8 -259 5 -47 8
44 8 240 -1 173 2 378 5 455 7 152 3 154 -12 5 -9 -91 -9 -90 -5 50 3 158 -8
138 -21 -35 -13 -179 -17 -79 -5 138 18 328 54 626 112 941 11 59 18 110 16
112 -2 3 -17 -60 -31 -138z"/>
<path d="M15806 9139 c-14 -11 -26 -25 -26 -31 0 -6 8 -4 18 5 10 10 26 17 35
17 9 0 17 4 17 9 0 20 -19 20 -44 0z"/>
<path d="M16130 9156 c0 -3 9 -10 20 -16 11 -6 20 -8 20 -6 0 3 -9 10 -20 16
-11 6 -20 8 -20 6z"/>
<path d="M14865 9020 c-13 -5 -14 -9 -5 -9 8 0 24 4 35 9 13 5 14 9 5 9 -8 0
-24 -4 -35 -9z"/>
<path d="M14766 8994 c-26 -9 -46 -17 -44 -19 2 -2 31 4 63 14 33 11 53 19 45
19 -8 1 -37 -6 -64 -14z"/>
<path d="M15986 8995 c-86 -30 -146 -112 -146 -200 0 -92 51 -153 134 -162 74
-9 163 46 197 122 20 43 25 130 9 155 -8 12 -10 9 -10 -12 0 -20 -4 -26 -15
-22 -8 4 -15 2 -15 -4 0 -6 -8 -8 -18 -5 -12 3 -25 -7 -42 -34 -15 -22 -37
-41 -55 -47 -71 -21 -85 -29 -85 -47 0 -11 -5 -19 -11 -19 -6 0 -8 -9 -4 -20
9 -29 -12 -25 -46 9 -24 24 -29 38 -29 76 0 100 84 185 183 185 33 0 47 4 45
12 -7 20 -53 26 -92 13z m113 -271 c-13 -14 -36 -32 -51 -40 -30 -16 -108 -19
-108 -5 0 5 9 7 20 4 35 -9 87 7 121 37 42 37 51 39 18 4z"/>
<path d="M14571 8939 c-35 -10 -69 -23 -74 -28 -5 -5 25 1 66 13 42 12 79 25
83 29 10 10 -1 8 -75 -14z"/>
<path d="M12783 8825 c-430 -45 -659 -54 -913 -35 -71 5 -126 13 -128 19 -8
24 -31 8 -56 -40 -29 -57 -33 -89 -11 -89 9 0 15 9 15 23 0 12 7 31 15 42 14
18 25 19 128 15 267 -11 570 -3 847 24 151 15 306 30 343 33 43 4 66 10 64 17
-6 17 -66 16 -304 -9z"/>
<path d="M12648 8603 c12 -2 32 -2 45 0 12 2 2 4 -23 4 -25 0 -35 -2 -22 -4z"/>
<path d="M12248 8593 c34 -2 90 -2 125 0 34 2 6 3 -63 3 -69 0 -97 -1 -62 -3z"/>
<path d="M11843 8583 c31 -2 83 -2 115 0 31 2 5 3 -58 3 -63 0 -89 -1 -57 -3z"/>
<path d="M15862 8544 c20 -20 103 -30 138 -15 21 8 15 10 -37 10 -34 1 -74 6
-90 12 -26 10 -27 9 -11 -7z"/>
<path d="M10905 8290 c3 -5 8 -10 11 -10 2 0 4 5 4 10 0 6 -5 10 -11 10 -5 0
-7 -4 -4 -10z"/>
<path d="M12264 8228 c-58 -39 -104 -104 -109 -155 l-5 -38 12 39 c15 53 92
131 143 145 59 16 89 13 120 -11 l28 -22 -18 28 c-38 57 -99 62 -171 14z"/>
<path d="M14665 8211 c-13 -21 8 -40 43 -39 37 0 335 -44 425 -64 26 -5 47
-13 47 -17 0 -3 -29 -36 -65 -71 -62 -62 -80 -99 -55 -115 6 -4 24 -30 40 -58
16 -29 30 -47 30 -42 0 6 -15 35 -34 65 l-34 54 69 74 c69 74 76 86 61 109 -9
15 -148 44 -340 74 -74 11 -145 24 -158 29 -13 5 -26 5 -29 1z"/>
<path d="M12476 8143 c3 -14 1 -23 -6 -23 -6 0 -39 -27 -73 -60 -50 -48 -70
-61 -104 -66 -40 -6 -49 -14 -43 -39 1 -5 3 -16 3 -22 1 -26 78 -33 121 -11
21 11 21 10 3 -10 -39 -44 -133 -36 -191 17 -23 20 -26 22 -18 6 25 -49 84
-85 137 -85 128 0 235 170 180 285 -10 19 -13 22 -9 8z"/>
<path d="M14477 8111 c-3 -12 -1 -21 3 -21 14 0 19 15 11 29 -6 9 -10 7 -14
-8z"/>
<path d="M14661 8114 c0 -11 3 -14 6 -6 3 7 2 16 -1 19 -3 4 -6 -2 -5 -13z"/>
<path d="M13410 8071 c0 -12 6 -21 13 -22 43 -3 72 -10 158 -42 53 -20 99 -33
102 -30 14 13 -8 33 -37 33 -25 1 -127 35 -218 75 -14 5 -18 2 -18 -14z"/>
<path d="M14651 8044 c0 -11 3 -14 6 -6 3 7 2 16 -1 19 -3 4 -6 -2 -5 -13z"/>
<path d="M14642 7980 c0 -14 2 -19 5 -12 2 6 2 18 0 25 -3 6 -5 1 -5 -13z"/>
<path d="M14632 7910 c0 -14 2 -19 5 -12 2 6 2 18 0 25 -3 6 -5 1 -5 -13z"/>
<path d="M14735 7841 c-74 -37 -91 -54 -30 -31 14 5 40 11 58 12 36 2 90 35
82 49 -10 15 -28 10 -110 -30z"/>
<path d="M14300 7859 c0 -5 5 -7 10 -4 6 3 10 8 10 11 0 2 -4 4 -10 4 -5 0
-10 -5 -10 -11z"/>
<path d="M14601 7768 c-12 -33 -3 -41 21 -19 11 11 17 24 13 30 -10 18 -25 13
-34 -11z"/>
<path d="M13842 7749 c2 -6 8 -11 13 -12 6 0 30 -13 55 -29 24 -15 80 -42 125
-59 44 -17 85 -35 91 -40 7 -5 27 -12 45 -14 53 -7 16 17 -86 55 -103 38 -201
85 -210 100 -8 13 -38 13 -33 -1z"/>
<path d="M12176 7701 c16 -17 84 -25 114 -12 21 8 17 10 -32 10 -31 1 -65 4
-75 7 -14 5 -15 4 -7 -5z"/>
<path d="M15181 7624 c0 -11 3 -14 6 -6 3 7 2 16 -1 19 -3 4 -6 -2 -5 -13z"/>
<path d="M14848 7525 c-8 -112 -40 -221 -68 -230 -11 -4 -20 -11 -20 -16 0 -6
-5 -7 -11 -3 -7 4 -10 1 -7 -7 2 -8 43 -40 91 -73 81 -54 86 -59 70 -73 -17
-13 -16 -14 7 -9 14 3 33 6 43 6 9 0 17 7 17 15 0 8 4 15 9 15 6 0 37 25 70
56 71 65 128 170 137 249 l5 50 -21 -58 c-33 -93 -120 -215 -143 -200 -5 3 -7
1 -3 -5 3 -6 -6 -20 -21 -31 -16 -11 -32 -24 -38 -29 -23 -18 -34 -22 -49 -16
-20 8 -21 24 -2 24 8 0 17 7 20 16 4 11 2 15 -8 11 -8 -3 -17 1 -20 10 -6 14
-8 14 -20 -2 -10 -14 -16 -16 -34 -6 -12 6 -22 9 -22 6 0 -3 -11 2 -24 10
l-24 16 20 40 c33 69 59 191 56 261 -3 62 -3 61 -10 -27z"/>
<path d="M14010 7570 c-52 -10 -151 -26 -220 -34 -194 -25 -200 -26 -200 -43
0 -12 8 -14 33 -10 17 4 118 18 222 32 223 30 297 45 303 63 5 15 -18 14 -138
-8z"/>
<path d="M13948 7361 c-1 -5 -73 -38 -158 -74 -195 -81 -233 -99 -237 -114 -4
-12 100 27 265 100 56 25 114 44 127 42 15 -1 25 3 25 11 0 7 3 19 6 28 4 10
1 16 -9 16 -8 0 -17 -4 -19 -9z"/>
<path d="M13958 6973 c20 -8 14 -20 -13 -25 -13 -3 -22 -2 -20 3 3 4 1 10 -5
14 -5 3 -10 -1 -10 -9 0 -8 -7 -19 -16 -24 -12 -7 -14 -14 -8 -25 8 -15 13
-14 38 8 33 28 40 31 33 12 -3 -8 -1 -20 3 -28 7 -10 9 -9 8 6 0 11 3 32 7 48
6 22 4 27 -11 26 -11 0 -14 -3 -6 -6z"/>
<path d="M15542 6933 c-7 -10 -10 -12 -7 -6 5 10 0 11 -18 4 -14 -6 -28 -7
-31 -4 -3 4 -6 2 -6 -4 0 -6 -10 -13 -22 -17 -13 -3 -25 -7 -28 -8 -3 -1 -48
-24 -100 -51 -52 -27 -170 -87 -262 -134 -101 -50 -168 -90 -168 -99 0 -8 -1
-17 -1 -21 -1 -5 8 -13 21 -19 29 -16 79 -1 146 41 29 19 55 31 58 28 3 -4 6
-2 6 4 0 5 19 18 43 28 23 10 71 35 107 56 36 20 69 37 74 37 5 0 12 4 15 9 3
4 22 19 41 33 43 30 54 38 89 70 15 14 39 31 54 39 14 8 24 18 21 23 -8 13
-18 10 -32 -9z"/>
<path d="M13860 6890 c0 -5 5 -10 11 -10 5 0 7 5 4 10 -3 6 -8 10 -11 10 -2 0
-4 -4 -4 -10z"/>
<path d="M9051 6544 c0 -11 3 -14 6 -6 3 7 2 16 -1 19 -3 4 -6 -2 -5 -13z"/>
<path d="M9064 6420 c0 -52 1 -74 3 -47 2 26 2 68 0 95 -2 26 -3 4 -3 -48z"/>
<path d="M9073 6190 c0 -41 2 -58 4 -37 2 20 2 54 0 75 -2 20 -4 3 -4 -38z"/>
<path d="M9084 5965 c0 -49 1 -71 3 -48 2 23 2 64 0 90 -2 26 -3 8 -3 -42z"/>
<path d="M9093 5280 c0 -30 2 -43 4 -27 2 15 2 39 0 55 -2 15 -4 2 -4 -28z"/>
<path d="M9752 3140 c0 -14 2 -19 5 -12 2 6 2 18 0 25 -3 6 -5 1 -5 -13z"/>
<path d="M22080 13509 c0 -5 5 -7 10 -4 6 3 10 8 10 11 0 2 -4 4 -10 4 -5 0
-10 -5 -10 -11z"/>
<path d="M18657 6413 c-4 -3 -7 -11 -7 -17 0 -6 5 -5 12 2 6 6 9 14 7 17 -3 3
-9 2 -12 -2z"/>
<path d="M18685 6409 c-4 -6 -5 -12 -2 -15 2 -3 7 2 10 11 7 17 1 20 -8 4z"/>
</g>
</svg>
